<svg xmlns="http://www.w3.org/2000/svg" width="38" height="55" viewBox="0 0 38 55">
    <defs>
        <linearGradient id="a" x1="68.629%" x2="50%" y1="50%" y2="100%">
            <stop offset="0%" stop-color="#EB4E6A"/>
            <stop offset="100%" stop-color="#F4B12E"/>
        </linearGradient>
    </defs>
    <g fill="none" fill-rule="evenodd">
        <ellipse cx="19" cy="54" fill="#000" opacity=".328" rx="5" ry="1"/>
        <path stroke="#EB4E6A" stroke-width="3" d="M2 18.8C2 31.4 19 50 19 50s17-18.6 17-31.2C36 9.512 28.399 2 19 2 9.601 2 2 9.512 2 18.8z"/>
        <path fill="url(#a)" d="M2 22.8C2 35.4 19 54 19 54s17-18.6 17-31.2C36 13.512 28.399 6 19 6 9.601 6 2 13.512 2 22.8z"/>
        <path fill="#FFF" d="M27.573 16.906a1.74 1.74 0 0 0-1.656-1.152H23v-2.28h-7v2.28h-2.917c-.77 0-1.411.48-1.656 1.152L9 23.736v9.124c0 .627.525 1.14 1.167 1.14h1.166c.642 0 1.167-.513 1.167-1.14v-1.14h14v1.14c0 .627.525 1.14 1.167 1.14h1.166c.642 0 1.167-.513 1.167-1.14v-9.123l-2.427-6.83zm-14.49 11.392c-.968 0-1.75-.764-1.75-1.71 0-.947.782-1.71 1.75-1.71.969 0 1.75.763 1.75 1.71 0 .946-.781 1.71-1.75 1.71zm12.834 0c-.969 0-1.75-.764-1.75-1.71 0-.947.781-1.71 1.75-1.71.968 0 1.75.763 1.75 1.71 0 .946-.782 1.71-1.75 1.71zm-14.584-5.702l1.75-5.131h12.834l1.75 5.131H11.333zM18.183 8h1.824v2.63h-1.824V8zm8.016 2.674l1.295 1.257-1.641 1.595-1.286-1.256 1.632-1.596zM11.8 11.931l1.286-1.257 1.632 1.596-1.286 1.256-1.632-1.595z"/>
    </g>
</svg>
