<?xml version="1.0"?>
<svg xmlns="http://www.w3.org/2000/svg" xmlns:xlink="http://www.w3.org/1999/xlink" version="1.1" id="Capa_1" x="0px" y="0px" viewBox="0 0 511.406 511.406" style="enable-background:new 0 0 511.406 511.406;" xml:space="preserve" width="512px" height="512px" class=""><g><g>
	<g>
		<path d="M255.703,84.739c-29.397,0-53.333,23.915-53.333,53.333c0,25.771,18.347,47.296,42.667,52.245v310.421    c0,5.888,4.779,10.667,10.667,10.667s10.667-4.779,10.667-10.667v-310.4c24.32-4.949,42.667-26.496,42.667-52.245    C309.036,108.654,285.1,84.739,255.703,84.739z" data-original="#000000" fill="#000000"/>
	</g>
</g><g>
	<g>
		<path d="M159.703,138.072c0-18.325,5.397-36.309,15.637-51.968c3.221-4.949,1.813-11.541-3.115-14.784    c-4.928-3.179-11.52-1.813-14.763,3.115c-12.48,19.136-19.093,41.173-19.093,63.637c0,22.464,6.592,44.437,19.029,63.552    c2.048,3.136,5.461,4.864,8.939,4.864c2.005,0,4.011-0.555,5.803-1.728c4.949-3.221,6.357-9.856,3.136-14.763    C165.079,174.36,159.703,156.398,159.703,138.072z" data-original="#000000" fill="#000000"/>
	</g>
</g><g>
	<g>
		<path d="M121.559,224.984c-16.917-26.005-25.856-56.043-25.856-86.912c0-30.635,8.832-60.523,25.515-86.357    c3.2-4.949,1.771-11.563-3.179-14.741c-4.928-3.243-11.563-1.771-14.741,3.157C84.375,69.464,74.37,103.299,74.37,138.072    c0,34.987,10.133,69.056,29.291,98.517c2.048,3.136,5.461,4.864,8.96,4.864c1.984,0,4.011-0.555,5.803-1.728    C123.351,236.526,124.759,229.912,121.559,224.984z" data-original="#000000" fill="#000000"/>
	</g>
</g><g>
	<g>
		<path d="M31.703,138.072c0-43.179,12.501-85.227,36.139-121.6c3.221-4.928,1.813-11.541-3.136-14.741    C59.778-1.49,53.164-0.082,49.943,4.846C24.066,44.675,10.37,90.776,10.37,138.072c0,47.296,13.675,93.333,39.552,133.163    c2.048,3.136,5.461,4.864,8.96,4.864c1.984,0,4.011-0.555,5.803-1.728c4.928-3.2,6.336-9.813,3.136-14.741    C44.183,223.256,31.703,181.251,31.703,138.072z" data-original="#000000" fill="#000000"/>
	</g>
</g><g>
	<g>
		<path d="M353.943,75.096c-3.221-4.949-9.835-6.315-14.763-3.115c-4.928,3.221-6.315,9.835-3.115,14.763    c10.24,15.659,15.637,33.643,15.637,51.989c0,18.304-5.376,36.267-15.573,51.925c-3.221,4.907-1.813,11.541,3.115,14.741    c1.792,1.173,3.819,1.728,5.803,1.728c3.499,0,6.912-1.707,8.939-4.864c12.459-19.093,19.051-41.088,19.051-63.531    C373.036,116.248,366.423,94.232,353.943,75.096z" data-original="#000000" fill="#000000"/>
	</g>
</g><g>
	<g>
		<path d="M408.108,40.771c-3.2-4.949-9.813-6.4-14.741-3.179c-4.949,3.179-6.379,9.792-3.179,14.741    c16.683,25.877,25.515,55.744,25.515,86.4c0,30.848-8.939,60.885-25.835,86.891c-3.2,4.928-1.792,11.541,3.136,14.741    c1.792,1.173,3.819,1.728,5.803,1.728c3.499,0,6.912-1.707,8.96-4.864c19.136-29.44,29.269-63.531,29.269-98.496    C437.036,103.96,427.031,70.104,408.108,40.771z" data-original="#000000" fill="#000000"/>
	</g>
</g><g>
	<g>
		<path d="M461.463,5.486c-3.2-4.928-9.835-6.357-14.763-3.115c-4.928,3.2-6.336,9.813-3.136,14.741    c23.637,36.373,36.139,78.421,36.139,121.621c0,43.157-12.48,85.184-36.096,121.536c-3.2,4.928-1.792,11.541,3.136,14.741    c1.792,1.173,3.819,1.728,5.803,1.728c3.499,0,6.912-1.707,8.96-4.864c25.856-39.808,39.531-85.867,39.531-133.141    C501.036,91.416,487.34,45.336,461.463,5.486z" data-original="#000000" fill="#000000"/>
	</g>
</g></g> </svg>
