<svg width="0" height="0" style="position:absolute"><symbol viewBox="0 0 57.186 56.512" id="icon-icon-1"><path d="M9.024 12.632H4.178V46.55a4.86 4.86 0 0 0 4.846 4.845h33.918V46.55H9.024V12.632zM47.788 2.94H18.715a4.86 4.86 0 0 0-4.846 4.846v29.072a4.86 4.86 0 0 0 4.846 4.846h29.072c2.664 0 4.844-2.182 4.844-4.846V7.786c0-2.665-2.179-4.846-4.843-4.846zm-2.424 21.805h-9.689v9.691h-4.846v-9.691h-9.691v-4.846h9.691v-9.69h4.846v9.69h9.689v4.846z"/></symbol><symbol viewBox="0 0 71 31" id="icon-icon-10"><title>down-chevron</title><path d="M67.714.058l-32.28 24.324L3.157.058 0 4.286l35.435 26.701L70.87 4.286z" fill="#FFF" fill-rule="evenodd"/></symbol><symbol viewBox="0 0 32 32" id="icon-icon-11"><path d="M25.776 23.429l-2.344 2.349a1.12 1.12 0 0 1-1.568 0L16 19.911l-5.859 5.867a1.112 1.112 0 0 1-1.568-.008l-2.347-2.341a1.116 1.116 0 0 1 0-1.568l5.859-5.859-5.859-5.864a1.11 1.11 0 0 1 0-1.563L8.57 6.226a1.11 1.11 0 0 1 1.568 0l5.861 5.864 5.864-5.864a1.104 1.104 0 0 1 1.563 0l2.349 2.344a1.12 1.12 0 0 1 0 1.568l-5.867 5.864 5.864 5.859c.429.437.429 1.136.003 1.568z"/></symbol><symbol viewBox="0 0 128 165" id="icon-icon-12"><title>Shape</title><defs><filter x="-50%" y="-50%" width="200%" height="200%" filterUnits="objectBoundingBox" id="ada"><feOffset in="SourceAlpha" result="shadowOffsetOuter1"/><feGaussianBlur stdDeviation="2" in="shadowOffsetOuter1" result="shadowBlurOuter1"/><feColorMatrix values="0 0 0 0 0 0 0 0 0 0 0 0 0 0 0 0 0 0 0.5 0" in="shadowBlurOuter1" result="shadowMatrixOuter1"/><feMerge><feMergeNode in="shadowMatrixOuter1"/><feMergeNode in="SourceGraphic"/></feMerge></filter></defs><path d="M222 111C222 49.797 172.203 0 111 0S0 49.797 0 111c0 32.327 13.901 61.466 36.029 81.769l-.105.092 3.6 3.036c.234.198.488.36.723.553a111.553 111.553 0 0 0 5.913 4.549c.654.472 1.308.944 1.974 1.404a113.041 113.041 0 0 0 6.627 4.23c.493.291.99.574 1.486.856a110.761 110.761 0 0 0 7.588 3.956c.19.089.384.17.573.258a110 110 0 0 0 26.846 8.497l.743.133c2.922.505 5.877.908 8.868 1.179.363.032.726.052 1.094.084 2.978.247 5.99.404 9.041.404 3.023 0 6.006-.157 8.969-.396.375-.032.75-.052 1.126-.084 2.967-.27 5.897-.662 8.791-1.159.25-.044.505-.089.755-.137a109.996 109.996 0 0 0 26.466-8.295c.307-.141.618-.274.925-.42a111.561 111.561 0 0 0 9.082-4.799 111.058 111.058 0 0 0 6.381-4.036c.747-.509 1.477-1.046 2.216-1.578a110.488 110.488 0 0 0 5.203-3.968c.375-.303.779-.565 1.146-.876l3.693-3.084-.109-.093C207.966 172.765 222 143.493 222 111zM8.073 111C8.073 54.245 54.245 8.073 111 8.073c56.755 0 102.927 46.172 102.927 102.927 0 30.584-13.42 58.08-34.668 76.945-1.187-.82-2.382-1.554-3.605-2.167l-34.175-17.086a8.947 8.947 0 0 1-4.973-8.045v-11.935a66.442 66.442 0 0 0 2.49-3.298c4.424-6.248 7.972-13.199 10.56-20.678 5.113-2.43 8.415-7.524 8.415-13.276V97.151c0-3.5-1.283-6.894-3.58-9.562V68.751c.21-2.094.952-13.917-7.6-23.669-7.44-8.492-19.48-12.791-35.791-12.791-16.31 0-28.351 4.299-35.79 12.787-8.553 9.752-7.81 21.574-7.6 23.67v18.837c-2.294 2.668-3.581 6.063-3.581 9.562v14.31c0 4.443 1.994 8.588 5.409 11.386 3.269 12.807 9.998 22.502 12.484 25.788v11.681a9.004 9.004 0 0 1-4.69 7.903l-31.916 17.41a29.17 29.17 0 0 0-3.035 1.92C21.296 168.689 8.073 141.363 8.073 111zm163.307 83.278a103.213 103.213 0 0 1-4.307 2.967c-.67.436-1.336.872-2.018 1.296a101.478 101.478 0 0 1-5.82 3.35c-.436.23-.876.448-1.316.674a102.85 102.85 0 0 1-14.08 5.958c-.169.056-.338.117-.512.173-2.53.84-5.094 1.586-7.685 2.228-.008 0-.016.004-.024.004a103.29 103.29 0 0 1-7.928 1.623c-.072.012-.145.028-.218.04-2.506.408-5.033.703-7.568.925-.448.04-.896.068-1.348.1-2.507.19-5.025.311-7.556.311-2.56 0-5.11-.125-7.649-.315-.44-.032-.88-.06-1.316-.1a104.39 104.39 0 0 1-7.628-.94l-.34-.061a102.543 102.543 0 0 1-15.701-3.92c-.157-.052-.319-.109-.476-.161-2.54-.864-5.05-1.82-7.516-2.878l-.052-.024a105.327 105.327 0 0 1-6.882-3.294c-.295-.153-.594-.299-.884-.456a103.733 103.733 0 0 1-7.827-4.662 102.591 102.591 0 0 1-5.4-3.766c-.182-.137-.356-.283-.537-.42l.387-.218 31.916-17.409a17.07 17.07 0 0 0 8.9-14.99l-.004-14.54-.929-1.122c-.088-.1-8.815-10.716-12.113-25.09l-.367-1.598-1.376-.892c-1.942-1.256-3.104-3.355-3.104-5.619V97.143c0-1.877.795-3.624 2.248-4.936l1.332-1.203V68.52l-.037-.528c-.012-.097-1.202-9.805 5.635-17.599 5.837-6.652 15.839-10.03 29.72-10.03 13.829 0 23.798 3.35 29.651 9.953 6.83 7.714 5.712 17.603 5.704 17.684l-.037 23.01 1.332 1.204c1.45 1.308 2.248 3.06 2.248 4.936v14.31c0 2.877-1.957 5.489-4.767 6.356l-2.006.618-.645 1.998c-2.382 7.399-5.772 14.232-10.075 20.311-1.058 1.493-2.087 2.817-2.97 3.83l-1.002 1.143v14.93c0 6.507 3.617 12.36 9.437 15.266l34.176 17.086c.218.109.432.222.646.335-.432.327-.876.63-1.312.944z" transform="translate(-46 -28)" filter="url(#ada)" fill="#FFF" fill-rule="evenodd"/></symbol><symbol viewBox="0 0 24 22" id="icon-icon-13"><title>Group</title><path d="M12 5.167V.5H.333v21h23.334V5.167H12zm-7 14H2.667v-2.334H5v2.334zM5 14.5H2.667v-2.333H5V14.5zm0-4.667H2.667V7.5H5v2.333zm0-4.666H2.667V2.833H5v2.334zm4.667 14H7.333v-2.334h2.334v2.334zm0-4.667H7.333v-2.333h2.334V14.5zm0-4.667H7.333V7.5h2.334v2.333zm0-4.666H7.333V2.833h2.334v2.334zm11.666 14H12v-2.334h2.333V14.5H12v-2.333h2.333V9.833H12V7.5h9.333v11.667zM19 9.833h-2.333v2.334H19V9.833zm0 4.667h-2.333v2.333H19V14.5z" fill-rule="evenodd"/></symbol><symbol viewBox="0 0 297 297" id="icon-icon-14"><path d="M148.5 69.022H44.969c-5.775 0-10.458 4.683-10.458 10.458 0 5.774 4.683 10.457 10.458 10.457H148.5c5.775 0 10.458-4.683 10.458-10.457 0-5.776-4.683-10.458-10.458-10.458zM148.5 103.532H44.969c-5.775 0-10.458 4.682-10.458 10.457s4.683 10.458 10.458 10.458H148.5c5.775 0 10.458-4.683 10.458-10.458s-4.683-10.457-10.458-10.457zM148.5 138.041H44.969c-5.775 0-10.458 4.683-10.458 10.458s4.683 10.458 10.458 10.458H148.5c5.775 0 10.458-4.683 10.458-10.458s-4.683-10.458-10.458-10.458z"/><path d="M270.855 17.255H26.144C11.728 17.255 0 28.983 0 43.399v175.69c0 14.416 11.728 26.145 26.144 26.145H181.18v24.054a10.459 10.459 0 0 0 16.257 8.702l20.083-13.388 20.082 13.388a10.449 10.449 0 0 0 10.736.519 10.458 10.458 0 0 0 5.522-9.22v-24.054h16.994c14.416 0 26.145-11.729 26.145-26.145V43.399c.001-14.416-11.728-26.144-26.144-26.144zM217.521 193.59c-15.281 0-27.714-12.487-27.714-27.835 0-15.347 12.433-27.834 27.714-27.834 15.281 0 27.713 12.487 27.713 27.834 0 15.348-12.431 27.835-27.713 27.835zm5.801 49.739a10.448 10.448 0 0 0-5.801-1.756c-2.022 0-4.045.585-5.801 1.756l-9.625 6.416v-37.769a48.279 48.279 0 0 0 15.426 2.528c5.391 0 10.575-.896 15.425-2.528v37.769l-9.624-6.416zm52.763-24.241c0 2.834-2.396 5.229-5.23 5.229h-16.994V198.1c7.637-8.612 12.288-19.94 12.288-32.345 0-26.88-21.814-48.75-48.628-48.75s-48.629 21.87-48.629 48.75c0 12.404 4.651 23.732 12.288 32.345v26.217H26.144c-2.834 0-5.229-2.395-5.229-5.229V43.399c0-2.834 2.395-5.229 5.229-5.229h244.711c2.834 0 5.23 2.395 5.23 5.229v175.689z"/></symbol><symbol viewBox="0 0 24 24" id="icon-icon-15"><path d="M19 9h-4V3H9v6H5l7 7 7-7zM5 18v2h14v-2H5z"/><path d="M0 0h24v24H0z" fill="none"/></symbol><symbol viewBox="0 0 24 24" id="icon-icon-16"><path d="M12 22c1.1 0 2-.9 2-2h-4a2 2 0 0 0 2 2zm6-6v-5c0-3.07-1.64-5.64-4.5-6.32V4c0-.83-.67-1.5-1.5-1.5s-1.5.67-1.5 1.5v.68C7.63 5.36 6 7.92 6 11v5l-2 2v1h16v-1l-2-2z"/></symbol><symbol viewBox="0 0 24 24" id="icon-icon-17"><path d="M10 20v-6h4v6h5v-8h3L12 3 2 12h3v8z"/><path d="M0 0h24v24H0z" fill="none"/></symbol><symbol viewBox="0 0 30 28" id="icon-icon-18"><title>Shape Copy 2</title><path d="M21.57 0c-2.588 0-5.072 1.235-6.694 3.188C13.255 1.235 10.77 0 8.182 0 3.6 0 0 3.691 0 8.39c0 5.765 5.058 10.463 12.72 17.6l2.156 1.999 2.157-2.013c7.662-7.123 12.72-11.821 12.72-17.587 0-4.698-3.6-8.389-8.182-8.389z" fill="#FFF" fill-rule="evenodd"/></symbol><symbol viewBox="0 0 36 35" id="icon-icon-19"><title>ic_check_circle_black_24px</title><path d="M17.774 0C7.963 0 0 7.835 0 17.488c0 9.654 7.963 17.489 17.774 17.489s17.774-7.835 17.774-17.489C35.548 7.835 27.585 0 17.774 0zM14.22 26.233l-8.887-8.745 2.506-2.465 6.381 6.26L27.71 8.01l2.507 2.483-15.997 15.74z" fill-rule="evenodd"/></symbol><symbol id="icon-icon-2" viewBox="0 0 110 110"><style>.alst0{fill:#e52c25}</style><title>Group 6</title><g id="alPage-1"><g id="alLANDING-PAGE-SHAREPOINT" transform="translate(-181 -1289)"><g id="alGroup-6" transform="translate(181 1289)"><g id="alGroup-4"><path id="alRectangle-3" class="alst0" d="M53.3 0H56v110h-2.7z"/><path id="alRectangle-3_1_" class="alst0" d="M0 53.9h110v2.7H0z"/></g><path class="alst0" d="M55.2 90.4c-10.8 0-21.2-5.2-27.8-13.8l2.4-1.8c6 7.9 15.5 12.6 25.4 12.6 1.8 0 3.6-.2 5.4-.5 1.1-.2 2.2-.4 3.3-.7l.8 2.9c-1.2.3-2.4.6-3.6.8-1.9.3-3.9.5-5.9.5zm18.1-5l-1.6-2.6c9.5-5.8 15.4-16.2 15.4-27.3 0-1.8-.2-3.6-.5-5.4-.8-4.5-2.5-8.8-5-12.5l2.5-1.7c2.8 4.1 4.6 8.7 5.5 13.7.3 1.9.5 3.9.5 5.9.1 12.1-6.4 23.6-16.8 29.9zM22.8 68.5c-.9-2.3-1.6-4.7-2-7.1-.3-2-.5-3.9-.5-5.9 0-9.5 4-18.8 11-25.4l2.1 2.2c-6.4 6-10 14.5-10 23.2 0 1.8.2 3.6.5 5.4.4 2.2 1 4.4 1.8 6.5l-2.9 1.1zM76 31.2c-5.8-5-13.2-7.7-20.7-7.7-1.8 0-3.6.2-5.4.5-3.4.6-6.6 1.7-9.6 3.3l-1.4-2.7c3.3-1.7 6.8-2.9 10.5-3.6 2-.3 3.9-.5 5.9-.5 8.3 0 16.3 3 22.7 8.4l-2 2.3z"/></g></g></g></symbol><symbol viewBox="0 0 24 30" id="icon-icon-20"><title>ic_note_add_black_24px</title><g transform="translate(-6 -3)" fill="none" fill-rule="evenodd"><path d="M0 0h36v36H0z"/><path d="M21 3H9a2.996 2.996 0 0 0-2.985 3L6 30c0 1.65 1.335 3 2.985 3H27c1.65 0 3-1.35 3-3V12l-9-9zm3 21h-4.5v4.5h-3V24H12v-3h4.5v-4.5h3V21H24v3zm-4.5-10.5V5.25l8.25 8.25H19.5z" fill="#FFF"/></g></symbol><symbol viewBox="0 0 36 20" id="icon-icon-21"><title>ic_group_add_black_24px</title><g transform="translate(0 -7)" fill="none" fill-rule="evenodd"><path d="M0 0h36v36H0z"/><path d="M12 15H7.5v-4.5h-3V15H0v3h4.5v4.5h3V18H12v-3zm15 1.5c2.49 0 4.485-2.01 4.485-4.5S29.49 7.5 27 7.5c-.48 0-.945.075-1.365.21a7.401 7.401 0 0 1 1.35 4.29c0 1.605-.51 3.06-1.35 4.29.42.135.885.21 1.365.21zm-7.5 0c2.49 0 4.485-2.01 4.485-4.5S21.99 7.5 19.5 7.5 15 9.51 15 12s2.01 4.5 4.5 4.5zm9.93 3.24c1.245 1.095 2.07 2.49 2.07 4.26v3H36v-3c0-2.31-3.555-3.735-6.57-4.26zm-9.93-.24c-3 0-9 1.5-9 4.5v3h18v-3c0-3-6-4.5-9-4.5z" fill="#FFF"/></g></symbol><symbol viewBox="0 0 30 24" id="icon-icon-22"><title>ic_mail_black_24px</title><g transform="translate(-3 -6)" fill="none" fill-rule="evenodd"><path d="M30 6H6a2.996 2.996 0 0 0-2.985 3L3 27c0 1.65 1.35 3 3 3h24c1.65 0 3-1.35 3-3V9c0-1.65-1.35-3-3-3zm0 6l-12 7.5L6 12V9l12 7.5L30 9v3z" fill="#FFF"/><path d="M0 0h36v36H0z"/></g></symbol><symbol viewBox="0 0 28 30" id="icon-icon-23"><title>ic_date_range_black_24px</title><g transform="translate(-4 -3)" fill="none" fill-rule="evenodd"><path d="M13.5 16.5h-3v3h3v-3zm6 0h-3v3h3v-3zm6 0h-3v3h3v-3zm3-10.5H27V3h-3v3H12V3H9v3H7.5a2.986 2.986 0 0 0-2.985 3L4.5 30a3 3 0 0 0 3 3h21c1.65 0 3-1.35 3-3V9c0-1.65-1.35-3-3-3zm0 24h-21V13.5h21V30z" fill="#FFF"/><path d="M0 0h36v36H0z"/></g></symbol><symbol viewBox="0 0 30 30" id="icon-icon-24"><title>ic_mood_black_24px</title><g transform="translate(-3 -3)" fill="none" fill-rule="evenodd"><path d="M0 0h36v36H0z"/><path d="M17.985 3C9.705 3 3 9.72 3 18c0 8.28 6.705 15 14.985 15C26.28 33 33 26.28 33 18c0-8.28-6.72-15-15.015-15zM18 30c-6.63 0-12-5.37-12-12S11.37 6 18 6s12 5.37 12 12-5.37 12-12 12zm5.25-13.5a2.247 2.247 0 0 0 2.25-2.25A2.247 2.247 0 0 0 23.25 12 2.247 2.247 0 0 0 21 14.25a2.247 2.247 0 0 0 2.25 2.25zm-10.5 0A2.247 2.247 0 0 0 15 14.25 2.247 2.247 0 0 0 12.75 12a2.247 2.247 0 0 0-2.25 2.25 2.247 2.247 0 0 0 2.25 2.25zM18 26.25c3.495 0 6.465-2.19 7.665-5.25h-15.33c1.2 3.06 4.17 5.25 7.665 5.25z" fill="#FFF"/></g></symbol><symbol viewBox="0 0 34 24" id="icon-icon-25"><title>ic_person_add_black_24px (1)</title><g transform="translate(-1 -6)" fill="none" fill-rule="evenodd"><path d="M0 0h36v36H0z"/><path d="M22.5 18c3.315 0 6-2.685 6-6s-2.685-6-6-6-6 2.685-6 6 2.685 6 6 6zM9 15v-4.5H6V15H1.5v3H6v4.5h3V18h4.5v-3H9zm13.5 6c-4.005 0-12 2.01-12 6v3h24v-3c0-3.99-7.995-6-12-6z" fill="#FFF"/></g></symbol><symbol viewBox="0 0 50 50" id="icon-icon-26"><title>Group 20</title><g fill="none" fill-rule="evenodd"><circle fill="#FFF" cx="25" cy="25" r="25"/><path d="M9.259 31.06L25.79 18.579 42.323 31.06l1.616-2.17-18.148-13.703L7.642 28.891z" fill="#3E92B7"/></g></symbol><symbol viewBox="0 0 16 32" id="icon-icon-27"><path d="M14.277 32c-.328 0-.656-.164-.985-.492L.164 16.739c-.492-.492-.492-1.149 0-1.641L13.292.329c.492-.492 1.313-.492 1.805-.164.492.492.492 1.149.164 1.805L2.789 15.919l12.472 13.949c.492.492.328 1.313-.164 1.805a1.253 1.253 0 0 1-.82.328z"/></symbol><symbol viewBox="0 0 16 32" id="icon-icon-28"><path d="M1.149 32c-.328 0-.656-.164-.821-.328-.492-.492-.492-1.149-.164-1.805l12.472-13.949L.164 1.969C-.328 1.477-.164.656.328.164.82-.164 1.641-.164 2.133.328l13.128 14.769c.492.492.492 1.149 0 1.641L2.133 31.507c-.328.328-.656.492-.985.492z"/></symbol><symbol viewBox="0 0 33 32" id="icon-icon-29"><path d="M19.622 4.379c4.825 0 8.735 3.915 8.735 8.735a8.732 8.732 0 0 1-8.735 8.735 8.738 8.738 0 0 1-8.735-8.735c.004-4.822 3.913-8.735 8.735-8.735zm-17.53 26.27a2.906 2.906 0 0 0 4.113 0l6.825-6.825c1.922 1.186 4.169 1.906 6.592 1.906 6.972 0 12.621-5.648 12.621-12.617C32.243 6.15 26.595.498 19.622.498c-6.964 0-12.617 5.648-12.617 12.615 0 2.43.716 4.672 1.902 6.594l-6.821 6.821a2.92 2.92 0 0 0 .006 4.121z"/></symbol><symbol id="icon-icon-3" viewBox="0 0 114.8927 104.24286"><g transform="translate(-256.84 -328.812)" id="awlayer1"><path d="M331.679 401.655c-.4 0-.8-.1-1.1-.4-.6-.6-.6-1.5 0-2.1l18.7-19c.1-.1.2-.2.4-.3.2-.1 4.8-2.4 13.6-.8.8.1 1.4.9 1.2 1.7-.2.8-.9 1.4-1.7 1.2-6.7-1.2-10.6.1-11.5.5l-18.5 18.8c-.3.3-.7.4-1.1.4zm-45.7 31.4h-27.6c-.5 0-1-.3-1.3-.7-.3-.4-.3-1-.1-1.5l21.4-41.3c4.8-8.5 11.3-8.2 11.6-8.2l42.2.3c.4 0 .8.2 1.1.5.3.3.4.7.4 1.1-.4 8.2-5 12.2-9.1 12.5-2.9.2-11 .3-11.4.3-1.7-.1-2.4.3-2.6.6-.2 1.3 0 1.9.1 2.1h30.2c2.4-2.4 13.4-13.3 17.9-17.1 4.7-3.9 9.3-2.8 11.6-.1 1.6 1.9 1.8 4.1.5 5.4-8.9 8.1-30.5 29.1-30.7 29.3-.3.3-.7.4-1 .4h-37.4c-10.7.2-14.3 15.2-14.4 15.3-.1.6-.7 1.1-1.4 1.1zm-25.1-3h24c.5-1.6 1.5-4.5 3.3-7.4 3.5-5.8 8.2-9 13.7-9.1h36.7c3.1-3 22-21.3 30.3-28.9 0-.4-.5-1.4-1.6-2-1.1-.6-3.4-1.3-6.5 1.3-4.9 4.1-18 17.3-18.2 17.4-.3.3-.7.4-1.1.4h-31.2c-.5 0-1.3-.2-1.9-.9-.9-1-1.1-2.6-.8-4.9v-.2c.1-.3 1-3 5.6-2.7 0 0 8.3 0 11.1-.2 2.6-.2 5.5-2.8 6.2-8.1l-40.6-.3c-.3 0-5-.1-8.9 6.6l-20.1 39zm49.4-31.4z" id="awpath4150"/><path d="M327.179 376.155c-.4 0-.7-.1-1-.4-.1-.1-5.5-5.3-12.1-11.5l-7.4-7-.1-.1c-5.8-6.6-4.4-15.6-4.3-15.9 2.2-13.3 13.1-12.5 14.1-12.4 6.4.4 12 8.2 12.3 8.5.5.7.3 1.6-.3 2.1-.7.5-1.6.3-2.1-.3 0-.1-5-6.9-10-7.3h-.1c-.4 0-9-1.1-10.9 9.9 0 .1-1.2 7.9 3.6 13.4l7.3 7c6.6 6.2 12.1 11.5 12.1 11.5.6.6.6 1.5 0 2.1-.3.3-.7.4-1.1.4zm.3 0c-.4 0-.8-.2-1.1-.5-.6-.6-.5-1.6.1-2.1.1-.1 5.8-5.3 12.4-11.5l7.3-7c4.8-5.5 3.6-13.3 3.6-13.4-1.9-11-10.5-9.9-10.9-9.9h-.1c-4.2.3-8.7 5.3-10 7.3-.5.7-1.4.8-2.1.4-.7-.5-.8-1.4-.4-2.1.2-.3 5.8-8.1 12.3-8.5 1.1-.1 11.9-.9 14.2 12.3.1.4 1.5 9.4-4.3 15.9l-.1.1-7.4 7c-6.6 6.2-12.4 11.5-12.4 11.5-.4.4-.7.5-1.1.5z" id="awpath4152"/></g><style id="awstyle4137">.st0{fill:#e52b25}</style></symbol><symbol viewBox="0 0 20 20" id="icon-icon-30"><title>ic_add_circle_black_24px (1)</title><path fill="none" fill-rule="evenodd" d="M22 22H-2V-2h24z"/><path d="M10 0C4.48 0 0 4.48 0 10s4.48 10 10 10 10-4.48 10-10S15.52 0 10 0zm5 11h-4v4H9v-4H5V9h4V5h2v4h4v2z" fill-rule="evenodd"/></symbol><symbol viewBox="0 0 19.177032 19.177032" id="icon-icon-31"><path fill-rule="evenodd" d="M9.589 11.52l7.657 7.657 1.931-1.931-7.657-7.657 7.657-7.658L17.246 0 9.589 7.657 1.93 0 0 1.931 7.657 9.59 0 17.246l1.931 1.931z"/></symbol><symbol viewBox="0 0 24 24" id="icon-icon-32"><path d="M9 11H7v2h2v-2zm4 0h-2v2h2v-2zm4 0h-2v2h2v-2zm2-7h-1V2h-2v2H8V2H6v2H5c-1.11 0-1.99.9-1.99 2L3 20a2 2 0 0 0 2 2h14c1.1 0 2-.9 2-2V6c0-1.1-.9-2-2-2zm0 16H5V9h14v11z"/><path d="M0 0h24v24H0z" fill="none"/></symbol><symbol viewBox="0 0 24 24" id="icon-icon-33"><path d="M11.99 2C6.47 2 2 6.48 2 12s4.47 10 9.99 10C17.52 22 22 17.52 22 12S17.52 2 11.99 2zM12 20c-4.42 0-8-3.58-8-8s3.58-8 8-8 8 3.58 8 8-3.58 8-8 8z"/><path d="M0 0h24v24H0z" fill="none"/><path d="M12.5 7H11v6l5.25 3.15.75-1.23-4.5-2.67z"/></symbol><symbol viewBox="0 0 12.117 12.12" id="icon-icon-34"><path fill="#00A0C6" d="M6.059 0A6.06 6.06 0 0 0 0 6.059a6.06 6.06 0 1 0 12.118 0A6.062 6.062 0 0 0 6.059 0zM9.4 6.924H6.896v2.488H5.211V6.924H2.704V5.203h2.507V2.715h1.686v2.488H9.4v1.721z"/></symbol><symbol viewBox="0 0 24 24" id="icon-icon-38"><defs><path d="M24 24H0V0h24v24z" id="bca"/></defs><clipPath id="bcb"><use overflow="visible" xlink:href="#bca"/></clipPath><path clip-path="url(#bcb)" d="M3 4V1h2v3h3v2H5v3H3V6H0V4h3zm3 6V7h3V4h7l1.83 2H21c1.1 0 2 .9 2 2v12c0 1.1-.9 2-2 2H5c-1.1 0-2-.9-2-2V10h3zm7 9c2.76 0 5-2.24 5-5s-2.24-5-5-5-5 2.24-5 5 2.24 5 5 5zm-3.2-5c0 1.77 1.43 3.2 3.2 3.2s3.2-1.43 3.2-3.2-1.43-3.2-3.2-3.2-3.2 1.43-3.2 3.2z"/></symbol><symbol viewBox="0 0 32.064594 15.763067" id="icon-icon-39"><path d="M32.065 14.481c0 .328-.164.656-.328.821-.492.492-1.15.492-1.805.164L15.982 2.994 2.035 15.466c-.492.492-1.313.328-1.805-.164-.328-.492-.328-1.313.164-1.805L15.162.369c.492-.492 1.149-.492 1.64 0l14.77 13.128c.328.328.492.656.492.985z"/></symbol><symbol viewBox="0 0 112 99" id="icon-icon-4"><title>group (1)</title><path d="M111.723 90.51l-4.438-15.414a2.299 2.299 0 0 0-.528-.845c-2.747-8.34-9.51-14.781-18.068-16.999l-1.268-.21c-1.902-.529-4.015.105-5.389 1.689-4.649 5.279-10.566 5.701-16.8 5.701s-12.15-.422-16.8-5.701c-1.373-1.584-3.486-2.218-5.388-1.69l-1.268.317c-6.446 1.69-11.94 5.807-15.427 11.297H13.036c-.106 0-.106 0-.211-.105 0-.106-.106-.211-.106-.423l2.747-9.819c2.43-7.707 7.08-10.03 16.166-12.353.423-.106.74-.317.951-.528.74.634 1.585 1.162 2.43 1.584.317.211.634.211.951.211.74 0 1.48-.422 1.902-1.161a2.115 2.115 0 0 0-.95-2.851c-4.861-2.534-8.348-9.714-8.348-17.104 0-6.547 5.389-11.931 11.94-11.931 1.268 0 2.43.21 3.592.528a24.125 24.125 0 0 0-1.796 9.185c0 18.055 10.883 33.259 23.774 33.259 12.679 0 23.879-15.52 23.879-33.259C89.957 10.69 79.285.027 66.077.027c-8.347 0-15.743 4.329-19.97 10.875a16.865 16.865 0 0 0-5.6-.95c-5.705 0-10.777 3.061-13.63 7.601-.21-.21-.422-.316-.633-.422-1.585-.845-3.17-1.161-4.966-1.161-5.917-.106-10.672 4.645-10.672 10.558 0 3.379.95 6.546 2.43 9.08-4.86 1.267-9.192 3.167-11.2 9.608L.146 51.34c-.317 1.056-.106 2.217.528 3.062.634.95 1.796 1.478 2.958 1.478h8.136c-.105.422-.317.844-.422 1.267l-2.748 9.925c-.422 1.372-.105 2.85.846 4.012.845 1.161 2.113 1.795 3.592 1.795h11.2c-.317.739-.528 1.478-.74 2.217l-4.437 15.52c-.423 1.795-.106 3.696 1.056 5.174 1.163 1.478 2.853 2.323 4.65 2.323h81.252c1.796 0 3.593-.845 4.65-2.323a5.877 5.877 0 0 0 1.056-5.28zm-63.08-75.49c.106-.106.212-.212.318-.423.105-.106.105-.317.211-.422A19.295 19.295 0 0 1 66.078 4.25c8.77 0 16.166 5.807 18.702 13.726-3.699.739-7.608-.74-9.933-3.907-.74-.95-2.007-1.161-2.958-.422-.423.317-.634.633-.74 1.056-.105.105-.105.21-.211.316-2.958 6.019-12.89 8.553-24.196 6.335.317-2.217.95-4.329 1.902-6.335zm5.918 11.297c8.452 0 15.426-2.64 19.019-7.602 2.641 2.323 5.916 3.59 9.403 3.59.846 0 1.797-.106 2.642-.317.105.633.105 1.161.105 1.795 0 15.52-9.192 29.14-19.652 29.14-10.038 0-18.808-12.564-19.548-27.345 2.748.528 5.495.739 8.03.739zM4.478 51.657l1.479-5.28c1.268-4.328 3.91-5.595 9.192-6.862.317-.106.634-.212.846-.423.528.423.95.74 1.585 1.056.316.211.633.211.95.211.74 0 1.48-.422 1.902-1.161.529-1.056.106-2.323-.845-2.85-2.747-1.48-4.755-5.597-4.755-9.82 0-3.59 2.853-6.44 6.446-6.44 1.162 0 2.113.21 3.064.738.317.106.528.212.845.212a15.93 15.93 0 0 0-.845 5.068c0 6.018 2.007 11.93 5.177 16.048-6.34 1.584-11.94 3.695-15.638 9.503H4.478zm102.913 41.6c-.211.21-.634.633-1.374.633H24.764c-.74 0-1.162-.423-1.373-.634-.317-.422-.423-1.056-.317-1.478l4.438-15.415c2.113-7.285 7.924-12.987 15.32-14.887l1.268-.317c.317-.106.846.106 1.163.422 5.81 6.652 12.996 7.18 19.97 7.18 6.973 0 14.158-.528 19.97-7.18.316-.316.739-.528 1.267-.422l1.268.317c7.29 1.9 13.208 7.602 15.32 14.887l1.903 6.546c.105.317.211.528.422.739l2.325 8.024c.105.528 0 1.162-.317 1.584z" fill="#E52B25" fill-rule="evenodd"/></symbol><symbol viewBox="0 0 55 55" id="icon-icon-40"><path d="M55 27.5C55 12.337 42.663 0 27.5 0S0 12.337 0 27.5c0 8.009 3.444 15.228 8.926 20.258l-.026.023.892.752c.058.049.121.089.179.137.474.393.965.766 1.465 1.127.162.117.324.234.489.348.534.368 1.082.717 1.642 1.048.122.072.245.142.368.212a27.44 27.44 0 0 0 1.88.98l.142.064a27.252 27.252 0 0 0 6.651 2.105l.184.033c.724.125 1.456.225 2.197.292.09.008.18.013.271.021.738.061 1.484.1 2.24.1.749 0 1.488-.039 2.222-.098l.279-.021a27.808 27.808 0 0 0 2.178-.287l.187-.034a27.251 27.251 0 0 0 6.557-2.055c.076-.035.153-.068.229-.104a27.639 27.639 0 0 0 2.25-1.189 27.514 27.514 0 0 0 1.581-1c.185-.126.366-.259.549-.391.439-.316.87-.642 1.289-.983.093-.075.193-.14.284-.217l.915-.764-.027-.023C51.523 42.802 55 35.55 55 27.5zm-53 0C2 13.439 13.439 2 27.5 2S53 13.439 53 27.5c0 7.577-3.325 14.389-8.589 19.063a7.494 7.494 0 0 0-.893-.537l-8.467-4.233a2.217 2.217 0 0 1-1.232-1.993v-2.957c.196-.242.403-.516.617-.817a20.378 20.378 0 0 0 2.616-5.123 3.63 3.63 0 0 0 2.085-3.289v-3.545c0-.867-.318-1.708-.887-2.369v-4.667c.052-.519.236-3.448-1.883-5.864C34.524 9.065 31.541 8 27.5 8s-7.024 1.065-8.867 3.168c-2.119 2.416-1.935 5.345-1.883 5.864v4.667a3.644 3.644 0 0 0-.887 2.369v3.545c0 1.101.494 2.128 1.34 2.821.81 3.173 2.477 5.575 3.093 6.389v2.894a2.23 2.23 0 0 1-1.162 1.958l-7.907 4.313a7.227 7.227 0 0 0-.752.476C5.276 41.792 2 35.022 2 27.5zm40.459 20.632c-.35.254-.706.5-1.067.735-.166.108-.331.216-.5.321-.472.292-.952.57-1.442.83-.108.057-.217.111-.326.167a25.481 25.481 0 0 1-3.488 1.476l-.127.043c-.627.208-1.262.393-1.904.552l-.006.001a25.59 25.59 0 0 1-1.964.402l-.054.01c-.621.101-1.247.174-1.875.229-.111.01-.222.017-.334.025-.621.047-1.245.077-1.872.077a25.43 25.43 0 0 1-1.895-.078c-.109-.008-.218-.015-.326-.025a25.862 25.862 0 0 1-1.89-.233l-.084-.015a25.405 25.405 0 0 1-3.89-.971l-.118-.04a25.86 25.86 0 0 1-1.862-.713l-.013-.006a26.094 26.094 0 0 1-1.705-.816c-.073-.038-.147-.074-.219-.113a25.7 25.7 0 0 1-1.939-1.155 25.417 25.417 0 0 1-1.338-.933l-.133-.104.096-.054 7.907-4.313a4.229 4.229 0 0 0 2.205-3.714l-.001-3.602-.23-.278c-.022-.025-2.184-2.655-3.001-6.216l-.091-.396-.341-.221a1.657 1.657 0 0 1-.769-1.392v-3.545c0-.465.197-.898.557-1.223l.33-.298v-5.57l-.009-.131c-.003-.024-.298-2.429 1.396-4.36C21.583 10.837 24.061 10 27.5 10c3.426 0 5.896.83 7.346 2.466 1.692 1.911 1.415 4.361 1.413 4.381l-.009 5.701.33.298c.359.324.557.758.557 1.223v3.545a1.67 1.67 0 0 1-1.181 1.575l-.497.153-.16.495a18.5 18.5 0 0 1-2.496 5.032c-.262.37-.517.698-.736.949l-.248.283V39.8c0 1.612.896 3.062 2.338 3.782l8.467 4.233.16.083c-.107.081-.217.156-.325.234z"/></symbol><symbol viewBox="0 0 24 24" id="icon-icon-41"><path d="M12 2C8.13 2 5 5.13 5 9c0 5.25 7 13 7 13s7-7.75 7-13c0-3.87-3.13-7-7-7zm0 9.5a2.5 2.5 0 0 1 0-5 2.5 2.5 0 0 1 0 5z"/><path d="M0 0h24v24H0z" fill="none"/></symbol><symbol viewBox="0 0 30 28" id="icon-icon-45"><title>ic_print_black_24px</title><g transform="translate(-3 -4)" fill="none" fill-rule="evenodd"><path d="M28.5 12h-21C5.01 12 3 14.01 3 16.5v9h6v6h18v-6h6v-9c0-2.49-2.01-4.5-4.5-4.5zM24 28.5H12V21h12v7.5zM28.5 18c-.825 0-1.5-.675-1.5-1.5s.675-1.5 1.5-1.5 1.5.675 1.5 1.5-.675 1.5-1.5 1.5zM27 4.5H9v6h18v-6z" fill="#00BEE7"/><path d="M0 0h36v36H0z"/></g></symbol><symbol id="icon-icon-46" viewBox="0 0 206 206"><style>.bist0{fill:none}</style><title>file</title><g id="biPage-1"><g id="biLista_instituição-Copy" transform="translate(-563 -166)"><g id="bifile" transform="translate(563 166)"><g id="biLayer_1_1_"><path id="biShape" d="M145.4 66.3h-85c-2.7 0-4.8 2.2-4.8 4.8 0 2.7 2.2 4.8 4.8 4.8h85.1c2.7 0 4.8-2.2 4.8-4.8 0-2.7-2.2-4.8-4.9-4.8z"/><path id="biShape_1_" d="M145.4 95.3h-85c-2.7 0-4.8 2.2-4.8 4.8 0 2.7 2.2 4.8 4.8 4.8h85.1c2.7 0 4.8-2.2 4.8-4.8s-2.2-4.8-4.9-4.8z"/><path id="biShape_2_" d="M179.9 41.9c0-1.2-.5-2.4-1.4-3.3L141.7 1.8c-.9-.9-2.1-1.4-3.4-1.4H36c-5.6 0-10.1 4.5-10.1 10.1v120.3c.1 2.4 1.3 4.6 3.4 5.9L45.9 147c5.5 3.4 12.3 3.4 17.7 0l11.4-7c2.3-1.5 5.3-1.5 7.6 0l11.4 7.1c2.7 1.7 5.8 2.6 8.9 2.6 3.1 0 6.1-.9 8.9-2.6l11.4-7.1c2.3-1.5 5.3-1.5 7.6 0l11.4 7.1c5.5 3.4 12.3 3.4 17.7 0l16.6-10.3c2.1-1.3 3.3-3.5 3.4-5.9V42.1v-.2zm-36.8-25.1l20.4 20.4h-19.9c-.3 0-.5-.2-.5-.5V16.8zm27.2 112.5l-15.4 9.6a6.98 6.98 0 0 1-7.6 0l-11.4-7.1c-5.5-3.4-12.3-3.4-17.7 0l-11.4 7.1a6.98 6.98 0 0 1-7.6 0l-11.4-7.1c-5.5-3.4-12.3-3.4-17.7 0l-11.4 7.1a6.98 6.98 0 0 1-7.6 0l-15.4-9.6V10.5c0-.3.2-.5.5-.5h97.4v26.7c0 5.6 4.5 10.1 10.1 10.1h26.7l-.1 82.5z"/><path id="biShape_3_" d="M179.9 159.4c0-.1 0-.1 0 0 0-2.7-1.4-5.1-3.7-6.4-2.3-1.3-5.1-1.2-7.3.2l-14.2 8.8c-2.2 1.4-5 1.4-7.3 0l-11.7-7.3c-5.4-3.3-12-3.3-17.4 0l-11.7 7.3c-2.2 1.4-5 1.4-7.3 0l-11.7-7.3c-5.4-3.3-12-3.3-17.4 0L58.4 162c-2.2 1.4-5 1.4-7.3 0l-14.2-8.8c-2.2-1.4-5-1.4-7.3-.2-2.3 1.3-3.7 3.7-3.7 6.3v36.5c0 5.6 4.5 10.1 10.1 10.1h133.7c5.6 0 10.1-4.5 10.1-10.1l.1-36.4zm-10.1 37H36c-.3 0-.5-.2-.5-.5v-32.2l10.5 6.6c5.4 3.3 12 3.3 17.4 0l11.7-7.3c2.2-1.4 5-1.4 7.3 0l11.7 7.3c2.7 1.7 5.7 2.5 8.7 2.5 3 0 6-.8 8.7-2.5l11.7-7.3c2.2-1.4 5-1.4 7.3 0l11.7 7.3c5.4 3.3 12 3.3 17.4 0l10.5-6.6v32.2c.2.2-.1.5-.3.5z"/></g></g></g></g><path class="bist0" d="M.1.4h205.6V206H.1z"/></symbol><symbol viewBox="0 0 24 24" id="icon-icon-47"><path d="M0 0h24v24H0z" fill="none"/><path d="M6 10c-1.1 0-2 .9-2 2s.9 2 2 2 2-.9 2-2-.9-2-2-2zm12 0c-1.1 0-2 .9-2 2s.9 2 2 2 2-.9 2-2-.9-2-2-2zm-6 0c-1.1 0-2 .9-2 2s.9 2 2 2 2-.9 2-2-.9-2-2-2z"/></symbol><symbol viewBox="0 0 26.386721 20.11524" id="icon-icon-48"><path d="M24.271 0L8.387 15.87 2.13 9.614 0 11.73l8.387 8.386 18-18L24.27 0z" fill-rule="evenodd"/></symbol><symbol viewBox="0 0 24 24" id="icon-icon-49"><path d="M17 12h-5v5h5v-5zM16 1v2H8V1H6v2H5c-1.11 0-1.99.9-1.99 2L3 19a2 2 0 0 0 2 2h14c1.1 0 2-.9 2-2V5c0-1.1-.9-2-2-2h-1V1h-2zm3 18H5V8h14v11z"/><path d="M0 0h24v24H0z" fill="none"/></symbol><symbol id="icon-icon-5" viewBox="0 0 56 56"><style>.bmst0{enable-background:new}</style><title>"</title><g id="bmPage-1"><g id="bmlanding" transform="translate(-635 -1209)"><path d="M171.8 495.4c-2.8-2.5-5.3-6-7.6-10.4-3.7-6.7-5.5-13.8-5.5-21.3 0-4.8 1.2-8.7 3.5-11.5 2.4-2.8 5.4-4.2 9.3-4.2 3.3 0 6.2 1.3 8.5 3.8s3.5 5.5 3.5 8.8c0 3.8-2.5 7.3-7.4 10.6l-.3 4.7c0 6.5 2.4 13.2 7.3 20.1v6.2c-4.8-2-8.5-4.3-11.3-6.8zm30.6-.1c-2.7-2.5-5.2-5.7-7.4-9.8-2.2-4-3.6-7.6-4.3-10.7-.7-3.1-1-6.8-1-11.1 0-4.8 1.1-8.7 3.4-11.5 2.2-2.8 5.3-4.2 9.3-4.2 3.3 0 6.1 1.2 8.4 3.7s3.4 5.5 3.4 8.9c0 2.1-.5 3.9-1.6 5.5-1 1.6-2.9 3.3-5.7 5l-.3 5.2c0 6.7 2.4 13.2 7.1 19.6v6.2c-4.9-2-8.6-4.3-11.3-6.8z" class="bmst0" id="bmGroup-7" transform="translate(476.581 762)"/></g></g></symbol><symbol viewBox="0 0 38 34" id="icon-icon-50"><path d="M13.695 29.989L34.557 5.417l-2.105-1.842L13.423 26.61l-8.088-7.583-1.72 1.721 10.08 9.24zM32.162 0l5.895 5.158L13.92 33.586 0 20.826l5.279-5.278 7.912 7.417L32.162 0z"/></symbol><symbol viewBox="0 0 36 31" id="icon-icon-51"><title>Group 18</title><defs><path id="boa" d="M35.517 9L16.392 31.554 8.36 24.046 7 25.498l8.805 8.188.773.71.649-.772L37 10.267z"/></defs><g transform="translate(-4 -6)" fill="none" fill-rule="evenodd"><use fill="#3EAFB7" xlink:href="#boa"/><path stroke="#3EAFB7" stroke-width="1.5" d="M16.33 30.469l-7.458-6.97-.548-.512-.512.547-1.36 1.452-.514.55.551.512 8.806 8.187.775.713.577.532.505-.601.649-.773 19.771-23.355.483-.57-.568-.485-1.483-1.266-.572-.49-.487.575-18.616 21.954z"/></g></symbol><symbol viewBox="0 0 93 78" id="icon-icon-52"><title>photo-camera</title><g fill="#3E92B7" fill-rule="evenodd"><path d="M84.883 11.785h-5.717L75.739 1.45A1.934 1.934 0 0 0 73.905.121h-30.94c-.832 0-1.57.536-1.834 1.33l-3.427 10.334H21.472V5.953a1.94 1.94 0 0 0-1.934-1.944H7.936a1.94 1.94 0 0 0-1.934 1.944v6.072A7.983 7.983 0 0 0 0 19.762v42.363c0 4.399 3.56 7.978 7.936 7.978h5.177v5.832a1.94 1.94 0 0 0 1.934 1.944h62.725c1.068 0 1.934-.87 1.934-1.944v-5.832h5.177c4.376 0 7.936-3.579 7.936-7.978V19.762c0-4.399-3.56-7.977-7.936-7.977zM44.359 4.01H72.51l2.579 7.776H41.78L44.36 4.01zM9.869 7.896h7.736v3.89H9.869v-3.89zm65.97 66.095H16.98v-3.888h58.858v3.888zM88.95 62.125c0 2.255-1.825 4.09-4.068 4.09H35.207v-5.832a1.939 1.939 0 0 0-1.933-1.944 1.94 1.94 0 0 0-1.934 1.944v5.832h-3.866V29.989a1.939 1.939 0 0 0-1.934-1.944c-1.068 0-1.934.87-1.934 1.944v36.226H7.936c-2.244 0-4.069-1.835-4.069-4.09V19.762c0-2.255 1.825-4.09 4.069-4.09h76.947c2.243 0 4.068 1.835 4.068 4.09v42.363z"/><path d="M58.435 19.56c-11.73 0-21.271 9.593-21.271 21.383 0 11.791 9.542 21.384 21.27 21.384 11.73 0 21.272-9.593 21.272-21.384 0-11.79-9.543-21.383-21.271-21.383zm0 38.879c-9.596 0-17.404-7.849-17.404-17.496 0-9.647 7.808-17.495 17.404-17.495s17.403 7.848 17.403 17.495c0 9.647-7.807 17.496-17.403 17.496z"/><path d="M58.435 27.336c-7.464 0-13.537 6.104-13.537 13.607 0 .725.059 1.455.174 2.17a1.937 1.937 0 0 0 2.218 1.608 1.943 1.943 0 0 0 1.599-2.23 9.796 9.796 0 0 1-.124-1.548c0-5.359 4.338-9.72 9.669-9.72 1.068 0 1.934-.87 1.934-1.943a1.938 1.938 0 0 0-1.933-1.944zM50.875 47.003a1.928 1.928 0 0 0-2.718-.311 1.952 1.952 0 0 0-.309 2.732c.31.39.65.774 1.012 1.14a1.923 1.923 0 0 0 2.735.004 1.951 1.951 0 0 0 .004-2.75 9.843 9.843 0 0 1-.724-.815zM25.54 20.794a1.94 1.94 0 0 0-1.934 1.944v1.27a1.94 1.94 0 0 0 1.934 1.944 1.94 1.94 0 0 0 1.934-1.944v-1.27a1.939 1.939 0 0 0-1.934-1.944zM81.293 20.36c-1.597 0-2.9 1.31-2.9 2.916a2.913 2.913 0 0 0 2.9 2.916c1.598 0 2.9-1.31 2.9-2.916a2.914 2.914 0 0 0-2.9-2.916z"/></g></symbol><symbol viewBox="0 0 34 34" id="icon-icon-54"><title>EXCLUSÃO</title><path d="M17 34C7.6 34 0 26.4 0 17S7.6 0 17 0s17 7.6 17 17-7.6 17-17 17zm0-1.4c8.6 0 15.6-7 15.6-15.6S25.6 1.4 17 1.4 1.4 8.4 1.4 17s7 15.6 15.6 15.6z"/><g transform="rotate(-45 22.442 4.346)"><path d="M10.5 19H9V0h1.5z"/><path d="M19.2 10.3H.2V8.8h19z"/></g></symbol><symbol viewBox="0 0 34 34" id="icon-icon-55"><title>ERRO</title><path d="M17 34C7.6 34 0 26.4 0 17S7.6 0 17 0s17 7.6 17 17-7.6 17-17 17zm0-1.4c8.6 0 15.6-7 15.6-15.6S25.6 1.4 17 1.4 1.4 8.4 1.4 17s7 15.6 15.6 15.6z"/><circle cx="17.5" cy="25.5" r="1.5"/><path d="M17.2 22h1.2l.4-15h-2.5l.4 15z"/></symbol><symbol viewBox="0 0 34 34" id="icon-icon-56"><title>CONFIRMAÇÃO</title><path d="M27.5 3.6C20.1-2.2 9.4-.9 3.6 6.5c-3.9 5-4.7 11.6-2.2 17.3 1.1 2.6 2.9 4.8 5.1 6.6 7.4 5.8 18.1 4.5 23.9-2.9 2.4-3.1 3.6-6.8 3.6-10.7 0-.7-.1-1.3-.1-2-.1-.4-.1-.9-.2-1.3-.4-2-1.2-4-2.3-5.7-.4-.6-.8-1.2-1.3-1.7l-1.2.9c.4.5.8 1 1.1 1.6 1 1.6 1.8 3.4 2.1 5.3.1.4.1.8.2 1.2.1.6.1 1.2.1 1.8 0 3.5-1.1 6.9-3.3 9.8-5.3 6.8-15.1 8-21.8 2.7-2.1-1.6-3.7-3.7-4.7-6C.5 18 1.2 12 4.7 7.4 10 .6 19.8-.6 26.5 4.7l1-1.1z"/><path d="M30.3 2l-15 17.6-6.2-5.8L8 14.9l6.9 6.4.6.5.5-.6L31.4 3z"/></symbol><symbol viewBox="0 0 24 24" id="icon-icon-57"><path d="M6 19c0 1.1.9 2 2 2h8c1.1 0 2-.9 2-2V7H6v12zM19 4h-3.5l-1-1h-5l-1 1H5v2h14V4z"/><path d="M0 0h24v24H0z" fill="none"/></symbol><symbol viewBox="0 0 24 24" id="icon-icon-58"><path d="M3 17.25V21h3.75L17.81 9.94l-3.75-3.75L3 17.25zM20.71 7.04a.996.996 0 0 0 0-1.41l-2.34-2.34a.996.996 0 0 0-1.41 0l-1.83 1.83 3.75 3.75 1.83-1.83z"/><path d="M0 0h24v24H0z" fill="none"/></symbol><symbol id="icon-icon-59" viewBox="0 0 24 24"><style id="bvstyle3">.st0{fill:#fff}.bvst1{fill:none}</style><title id="bvtitle5">icon_dialog</title><g id="bvg13"><path id="bvpath16" d="M9.7 19.9c-1.5 0-3-.4-4.3-1.1-.3-.1-1.7.2-3 .5l-1.3.4.3-1.3c.3-1.2.5-2.6.4-2.9-.7-1.1-1.2-2.4-1.3-3.8-.6-5.1 3-9.7 8-10.3 5.1-.6 9.7 3 10.3 8.1.3 2.5-.4 4.9-1.9 6.8-1.5 2-3.7 3.2-6.2 3.5-.3.1-.6.1-1 .1zm-4.5-2.6c.4 0 .7 0 .9.2 1.4.7 3 1 4.6.8 2.1-.3 3.9-1.3 5.2-2.9 1.3-1.6 1.8-3.7 1.6-5.7-.6-4.3-4.5-7.3-8.8-6.8-4.2.5-7.2 4.4-6.7 8.7.1 1.2.5 2.2 1.1 3.2.3.5.3 1.7 0 2.8.8-.1 1.5-.3 2.1-.3z"/></g><path class="bvst1" id="bvrect18" d="M.1 0h24v24H.1z"/><path d="M16.271 6.443c.804.37 1.432 1.013 1.825 1.87 2.65 1.16 4.416 3.936 4.004 6.988-.1 1-.5 1.999-1 2.799-.3.4-.3 1.2-.1 2.4-1.2-.3-2-.3-2.4-.1-1.2.6-2.5.9-3.9.7a6.84 6.84 0 0 1-3.577-1.643c-.77.072-1.493-.039-2.123-.324a3.574 3.574 0 0 1-.31-.17A8.265 8.265 0 0 0 14.5 22.6c.3.1.7.1 1 .1 1.3 0 2.6-.4 3.7-1 .3 0 1.5.2 2.6.5l1.3.4-.3-1.3c-.3-1-.5-2.2-.4-2.4.6-1 1.1-2.2 1.2-3.4.6-4.5-2.6-8.6-7.1-9.2-.088-.015-.152.096-.229.143z" id="bvpath11"/></symbol><symbol viewBox="0 0 196 196" id="icon-icon-6"><title>play-button (1)</title><defs><path d="M158.58 42.518c-11.347-19.653-29.669-33.713-51.59-39.586C85.07-2.942 62.173.072 42.518 11.42 22.864 22.767 8.805 41.089 2.932 63.01c-5.874 21.921-2.86 44.818 8.488 64.472 11.347 19.653 29.669 33.713 51.59 39.586A85.422 85.422 0 0 0 85.138 170c14.722 0 29.253-3.861 42.344-11.42 19.654-11.347 33.713-29.668 39.586-51.59 5.874-21.921 2.86-44.817-8.488-64.472zm-.059 62.182c-5.262 19.639-17.856 36.053-35.464 46.218-17.607 10.166-38.12 12.866-57.757 7.605-19.64-5.262-36.053-17.857-46.218-35.465C8.916 105.451 6.216 84.938 11.478 65.3 16.74 45.662 29.335 29.25 46.942 19.082c11.73-6.771 24.745-10.23 37.934-10.23 6.611 0 13.268.87 19.823 2.626 19.639 5.262 36.053 17.857 46.218 35.464 10.166 17.608 12.867 38.12 7.604 57.758z" id="bwb"/><filter x="-50%" y="-50%" width="200%" height="200%" filterUnits="objectBoundingBox" id="bwa"><feOffset in="SourceAlpha" result="shadowOffsetOuter1"/><feGaussianBlur stdDeviation="6.5" in="shadowOffsetOuter1" result="shadowBlurOuter1"/><feColorMatrix values="0 0 0 0 0 0 0 0 0 0 0 0 0 0 0 0 0 0 0.5 0" in="shadowBlurOuter1"/></filter><path d="M125.766 76.982l-54.628-31.54c-2.899-1.673-6.36-1.673-9.259 0-2.899 1.674-4.63 4.671-4.63 8.019v63.079c0 3.347 1.731 6.345 4.63 8.019a9.233 9.233 0 0 0 4.63 1.255c1.59 0 3.18-.42 4.629-1.256l54.628-31.54c2.9-1.673 4.63-4.67 4.63-8.018 0-3.347-1.731-6.344-4.63-8.018zm-4.425 8.375l-54.628 31.539a.367.367 0 0 1-.41 0c-.205-.119-.205-.279-.205-.356V53.461c0-.077 0-.237.205-.356a.416.416 0 0 1 .21-.062c.093 0 .16.039.201.062l54.628 31.54a.368.368 0 0 1 .205.356c0 .237-.14.317-.206.356z" id="bwd"/><filter x="-50%" y="-50%" width="200%" height="200%" filterUnits="objectBoundingBox" id="bwc"><feOffset in="SourceAlpha" result="shadowOffsetOuter1"/><feGaussianBlur stdDeviation="6.5" in="shadowOffsetOuter1" result="shadowBlurOuter1"/><feColorMatrix values="0 0 0 0 0 0 0 0 0 0 0 0 0 0 0 0 0 0 0.5 0" in="shadowBlurOuter1"/></filter><path d="M137.23 44.638c-10.522-13.592-26.34-22.725-43.396-25.055a4.426 4.426 0 0 0-1.198 8.767c14.78 2.02 28.483 9.93 37.597 21.705a4.417 4.417 0 0 0 3.501 1.716 4.424 4.424 0 0 0 3.495-7.132z" id="bwf"/><filter x="-50%" y="-50%" width="200%" height="200%" filterUnits="objectBoundingBox" id="bwe"><feOffset in="SourceAlpha" result="shadowOffsetOuter1"/><feGaussianBlur stdDeviation="6.5" in="shadowOffsetOuter1" result="shadowBlurOuter1"/><feColorMatrix values="0 0 0 0 0 0 0 0 0 0 0 0 0 0 0 0 0 0 0.5 0" in="shadowBlurOuter1"/></filter></defs><g transform="translate(13 13)" fill="none" fill-rule="evenodd"><use fill="#000" filter="url(#bwa)" xlink:href="#bwb"/><use fill="#FFF" xlink:href="#bwb"/><use fill="#000" filter="url(#bwc)" xlink:href="#bwd"/><use fill="#FFF" xlink:href="#bwd"/><g><use fill="#000" filter="url(#bwe)" xlink:href="#bwf"/><use fill="#FFF" xlink:href="#bwf"/></g></g></symbol><symbol id="icon-icon-60" viewBox="0 0 25 25"><style>.bxst0{enable-background:new}.bxst1{fill:none}</style><title>icon_pass</title><path id="bxShape" d="M21.4 12.1v-.8c0-2.7-2.3-4.9-5.1-4.9s-5.1 2.2-5.1 4.9v.8c-.7.2-1.3.9-1.3 1.7V20c0 1 .8 1.8 1.9 1.8h9c1 0 1.9-.8 1.9-1.8v-6.2c0-.8-.5-1.5-1.3-1.7zm-5.1-4.5c2.2 0 3.9 1.7 3.9 3.8v.6h-7.8v-.7c0-2.1 1.8-3.7 3.9-3.7zM21.5 20c0 .4-.3.7-.7.7h-9c-.4 0-.7-.3-.7-.7v-6.2c0-.4.3-.7.7-.7h9c.4 0 .7.3.7.7V20z"/><path id="bxShape_1_" d="M16.3 14.5c-1 0-1.9.8-1.9 1.8 0 .8.5 1.5 1.3 1.7v.8c0 .3.3.6.6.6s.6-.3.6-.6V18c.7-.2 1.3-.9 1.3-1.7 0-1-.9-1.8-1.9-1.8zm0 2.5c-.4 0-.7-.3-.7-.7 0-.4.3-.7.7-.7.4 0 .7.3.7.7 0 .4-.3.7-.7.7z"/><path d="M7.1 7.8v1.5l1.5-.5.3.8-1.5.5.9 1.3-.7.5-.9-1.3-.9 1.3-.7-.5.9-1.3-1.4-.5.3-.8 1.5.5V7.8h.7z" class="bxst0"/><path d="M9 15.6H3c-1.5 0-2.7-1.2-2.7-2.7v-7c0-1.5 1.2-2.7 2.8-2.7h19c1.5 0 2.8 1.2 2.8 2.7v9h-1.5v-9c0-.7-.6-1.2-1.3-1.2H3c-.7 0-1.3.6-1.3 1.2v7c0 .7.6 1.2 1.2 1.2h6v1.5z"/><path class="bxst1" d="M0 0h25v25H0z"/></symbol><symbol id="icon-icon-61" viewBox="0 0 24 24"><style>.byst0{fill:none}</style><title>icon_sair</title><path d="M11.8 23.6h-7c-1.5 0-2.7-1.2-2.7-2.7v-18C2.1 1.4 3.3.2 4.8.2h8c1 0 1.7.8 1.7 1.7v8H13v-8c0-.1-.1-.2-.2-.2h-8c-.7 0-1.2.6-1.2 1.2v18c0 .7.6 1.2 1.2 1.2h7c.7 0 1.2-.6 1.2-1.2v-7h1.5v7c0 1.5-1.2 2.7-2.7 2.7z"/><path id="byShape" d="M17.3 17c.1.1.3.2.5.2s.4-.1.5-.2l4.7-4.7.1-.1s0-.1.1-.1V12v-.1-.1-.1s0-.1-.1-.1l-.1-.1-4.7-4.7c-.3-.3-.7-.3-1 0s-.3.7 0 1l3.5 3.5H8.5c-.4 0-.7.3-.7.7 0 .4.3.7.7.7h12.3L17.3 16c-.3.3-.3.7 0 1z"/><path class="byst0" d="M0 0h24v24H0z"/></symbol><symbol id="icon-icon-62" viewBox="0 0 24 24"><style>.bzst0{fill:none}</style><title>icon_home</title><path id="bzShape" d="M23.8 12.1L12.5.2c-.1-.1-.2-.2-.3-.2s-.3.1-.3.2L.6 12.1c-.1.1-.2.3-.1.5 0 .2.2.3.3.3.2 0 .3 0 .5-.1l1.5-1.6V24h6.3V12h6.2v12h6.3V11.2l1.5 1.6c.1.1.3.2.5.1.2 0 .3-.2.3-.3 0-.2 0-.4-.1-.5z"/><path class="bzst0" d="M0 0h24v24H0z"/></symbol><symbol viewBox="0 0 56 55" id="icon-icon-63"><title>Group 2</title><defs><path id="caa" d="M0 0h56v56H0z"/></defs><path d="M55.406 16.727L41.2 2.544a2.018 2.018 0 0 0-1.444-.594 2.02 2.02 0 0 0-1.439.604l-.671.68a5.527 5.527 0 0 1-3.134 1.578l-1.03.146a7.333 7.333 0 0 0-3.446 1.465L27.029 3.42a3.996 3.996 0 0 0-2.842-1.175h-3.733c-.401 0-.779-.156-1.062-.44a3.074 3.074 0 0 0-2.187-.904c-.826 0-1.602.321-2.186.904L.96 15.842a3.281 3.281 0 0 0 0 4.64c.228.227.38.529.425.848l.492 3.44c.122.854.526 1.66 1.137 2.27l3.147 3.142-.498.498a4.61 4.61 0 0 0 3.971 7.815 4.601 4.601 0 0 0 1.296 3.962 4.617 4.617 0 0 0 3.969 1.295 4.665 4.665 0 0 0-.054.706c0 1.23.48 2.388 1.353 3.259a4.59 4.59 0 0 0 3.264 1.35c.239 0 .475-.018.707-.054a4.605 4.605 0 0 0 4.56 5.31c1.072 0 2.143-.37 3.005-1.11a4.518 4.518 0 0 0 3.015 1.147c1.16 0 2.319-.44 3.202-1.322l.124-.125a4.513 4.513 0 0 0 1.275-3.862 4.517 4.517 0 0 0 3.868-1.273l.125-.124a4.513 4.513 0 0 0 1.275-3.862 4.517 4.517 0 0 0 3.868-1.273l.124-.124a4.513 4.513 0 0 0 1.275-3.862 4.517 4.517 0 0 0 3.868-1.273l.124-.124a4.521 4.521 0 0 0 .186-6.196l1.268-1.267a7.212 7.212 0 0 0 2.131-5.137v-.258c0-1.769.69-3.432 1.943-4.683a2.028 2.028 0 0 0 0-2.868zM24.73 52.545a2.817 2.817 0 0 1-2.003-.828 2.808 2.808 0 0 1-.83-2c0-.649.217-1.264.617-1.763.12.157.251.308.394.451l3.555 3.55a2.814 2.814 0 0 1-1.733.59zm8.085-.89l-.124.124a2.751 2.751 0 0 1-3.882 0l-4.64-4.632a2.741 2.741 0 0 1 0-3.876l.125-.125a2.739 2.739 0 0 1 1.94-.801c.704 0 1.407.267 1.942.801l4.64 4.633a2.74 2.74 0 0 1 0 3.876zm5.268-5.26l-.125.125a2.751 2.751 0 0 1-3.882 0l-4.64-4.633a2.741 2.741 0 0 1 0-3.876l.125-.124a2.739 2.739 0 0 1 1.941-.801c.703 0 1.406.267 1.941.801l4.64 4.632a2.741 2.741 0 0 1 0 3.876zm5.267-5.259l-.125.125a2.751 2.751 0 0 1-3.882 0l-4.639-4.633a2.72 2.72 0 0 1-.804-1.938c0-.732.285-1.42.804-1.938l.125-.124a2.738 2.738 0 0 1 1.94-.802c.704 0 1.407.267 1.942.802l4.64 4.632a2.741 2.741 0 0 1-.001 3.876zm5.267-5.259l-.124.124a2.751 2.751 0 0 1-3.882 0l-4.64-4.632a2.74 2.74 0 0 1 0-3.876l.125-.124a2.739 2.739 0 0 1 1.94-.802c.704 0 1.407.267 1.942.802L48.618 32a2.74 2.74 0 0 1 0 3.876zM53.53 18.33c-1.474 1.601-2.443 3.607-2.443 5.793v.414c0 1.454-.572 2.85-1.59 3.878l-1.247 1.26-3.528-3.565a4.442 4.442 0 0 0-6.327 0l-.123.124a4.547 4.547 0 0 0-1.26 3.862 4.442 4.442 0 0 0-3.822 1.273l-.07.07c-.793.802-1.296 1.865-1.357 2.998-.017.31-.002.618.041.918a4.441 4.441 0 0 0-3.819 1.273l-.123.124a4.547 4.547 0 0 0-1.26 3.862 4.441 4.441 0 0 0-3.822 1.273l-.123.125a4.555 4.555 0 0 0-1.18 4.272.878.878 0 0 0-.245.174 2.786 2.786 0 0 1-4.291-.402 2.75 2.75 0 0 1-.446-1.098 2.844 2.844 0 0 1 .778-2.5l4.833-4.884a.897.897 0 0 0-.02-1.278c-.35-.334-.911-.3-1.252.045L16.027 41.2a2.782 2.782 0 0 1-4-.043c-1.027-1.082-.998-2.802 0-3.911l.042-.047 4.832-4.883a.897.897 0 0 0 0-1.259.874.874 0 0 0-1.246 0l-4.834 4.885a2.78 2.78 0 0 1-3.563.333 2.836 2.836 0 0 1-1.214-2.335c0-.755.29-1.466.82-2l8.086-8.171c.34-.343.341-.9.003-1.244l-.013-.013a.866.866 0 0 0-1.236-.002l-6.348 6.415-3.11-3.143a2.256 2.256 0 0 1-.625-1.263l-.486-3.44c-.101-.713-.447-1.358-.941-1.879a1.514 1.514 0 0 1 .023-2.099l13.86-14.006c.237-.239.55-.396.883-.411.364-.017.71.116.967.372.603.597 1.388.97 2.233.97h3.761c.586 0 1.148.235 1.562.654l12.805 12.94c1.108 1.118 1.137 2.98.011 4.079a2.782 2.782 0 0 1-3.925-.034l-8.73-8.821a1.667 1.667 0 0 0-2.374 0l-6.65 6.718a.888.888 0 0 0 0 1.247l.013.012a.865.865 0 0 0 1.233 0l6.591-6.66 8.607 8.698c1.786 1.804 4.76 1.859 6.535.044a4.605 4.605 0 0 0 1.315-3.33c-.023-1.216-.545-2.369-1.396-3.229L30.96 7.695a5.433 5.433 0 0 1 2.396-.974l1.017-.147a7.164 7.164 0 0 0 4.103-2.09l.663-.68a.24.24 0 0 1 .174-.074c.05 0 .115.013.174.073l14.037 14.183c.06.06.072.129.072.175 0 .045-.012.11-.065.169z" fill-rule="nonzero" fill="#44C6E2"/></symbol><symbol viewBox="0 0 56 56" id="icon-icon-64"><title>community</title><g fill-rule="nonzero" fill="#44C6E2"><path d="M23.256 11.899a4.602 4.602 0 0 0 2.04 2.53v.488l-3.616 1.417c-.334.12-3.164 1.25-3.164 4.848v3.15c0 .489.396.885.884.885h2.247a.884.884 0 1 0 0-1.768h-1.363v-2.267c0-2.446 1.913-3.156 1.987-3.182a.752.752 0 0 0 .04-.015l3.313-1.297 1.76 1.713c.165.161.386.251.616.251h.014a.884.884 0 0 0 .623-.27l1.661-1.725 3.305 1.325c.015.007.031.012.047.018.02.007 1.987.696 1.987 3.182v2.267H24.456a.884.884 0 1 0 0 1.768h12.065a.89.89 0 0 0 .884-.89v-3.145c0-3.584-2.808-4.72-3.16-4.847l-3.523-1.413v-.493a4.601 4.601 0 0 0 2.042-2.532 2.487 2.487 0 1 0 1.375-4.409v-1.56C34.139 2.66 31.479 0 28.21 0h-.42a5.935 5.935 0 0 0-5.929 5.929V7.48a2.487 2.487 0 0 0 1.395 4.418zm9.734-3.002c.032.01.065.018.099.024a.72.72 0 0 1-.099 1.077V8.897zm-4.036 6.607l-.974 1.01-.915-.89v-.6c.179.022.36.034.544.034h.801c.185 0 .366-.012.544-.033v.479zm2.268-5.026a2.814 2.814 0 0 1-2.811 2.812h-.802a2.815 2.815 0 0 1-2.812-2.812V8.16c1.145-.124 3.168-.526 4.73-1.828.35.6.89 1.246 1.695 1.624v2.523zm-7.592-4.55a4.165 4.165 0 0 1 4.16-4.16h.42a4.165 4.165 0 0 1 4.16 4.16v.56c-.014-.006-.03-.009-.045-.013l-.023-.006c-1.222-.278-1.622-1.91-1.625-1.923a.884.884 0 0 0-1.579-.323c-1.59 2.199-5.138 2.224-5.182 2.224h-.003a.88.88 0 0 0-.09.004l-.024.004a.945.945 0 0 0-.064.01l-.033.008-.051.013-.021.008v-.565zm-.747 3.014a.87.87 0 0 0 .146-.035v1.112a.722.722 0 0 1-.146-1.077zM36.136 3.068a26.34 26.34 0 0 1 13.92 10.789.884.884 0 1 0 1.489-.955A28.113 28.113 0 0 0 36.687 1.387a.884.884 0 1 0-.55 1.681zM4.643 14.124a.884.884 0 0 0 1.222-.267 26.32 26.32 0 0 1 14.1-10.848.884.884 0 1 0-.538-1.684 28.092 28.092 0 0 0-15.05 11.577.885.885 0 0 0 .266 1.222zM17.018 51.845A26.26 26.26 0 0 1 5.865 42.14a.884.884 0 1 0-1.489.955A28.027 28.027 0 0 0 16.28 53.452a.881.881 0 0 0 1.172-.434.885.885 0 0 0-.434-1.173zM51.278 41.873a.884.884 0 0 0-1.222.267 26.276 26.276 0 0 1-10.972 9.62.884.884 0 0 0 .751 1.601 28.042 28.042 0 0 0 11.71-10.266.885.885 0 0 0-.267-1.222zM18.89 39.717v-3.144c0-3.585-2.808-4.72-3.16-4.848l-3.522-1.412v-.494a4.602 4.602 0 0 0 2.041-2.532 2.487 2.487 0 1 0 1.375-4.409v-1.56c0-3.268-2.66-5.928-5.928-5.928h-.42a5.935 5.935 0 0 0-5.93 5.929v1.553a2.487 2.487 0 0 0 1.395 4.417 4.602 4.602 0 0 0 2.04 2.53v.488l-3.616 1.417c-.334.12-3.164 1.25-3.164 4.849v3.15c0 .488.396.884.884.884h2.247a.884.884 0 1 0 0-1.768H1.769v-2.266c0-2.447 1.913-3.156 1.987-3.183a.791.791 0 0 0 .041-.014l3.312-1.298 1.76 1.714c.165.16.386.25.616.25H9.5a.884.884 0 0 0 .623-.27l1.661-1.724 3.305 1.325.04.015c.082.029 1.994.738 1.994 3.185v2.266H5.941a.884.884 0 1 0 0 1.768h12.066a.89.89 0 0 0 .884-.89zm-4.414-15.43c.031.01.065.018.098.024a.72.72 0 0 1-.098 1.078v-1.102zM4.514 25.41a.722.722 0 0 1-.145-1.077.88.88 0 0 0 .145-.035v1.112zm.887-3.572h-.003a.88.88 0 0 0-.09.005c-.008 0-.016.002-.023.003a.956.956 0 0 0-.065.01l-.032.008c-.018.005-.035.008-.052.014l-.021.007v-.565a4.165 4.165 0 0 1 4.16-4.16h.42a4.165 4.165 0 0 1 4.16 4.16v.558l-.045-.012-.022-.006c-1.222-.278-1.623-1.91-1.626-1.923a.884.884 0 0 0-1.578-.323c-1.591 2.2-5.139 2.224-5.183 2.224zm5.038 9.057l-.974 1.01-.915-.89v-.6c.179.022.36.034.544.034h.802c.184 0 .365-.012.543-.033v.479zm-.543-2.214h-.802a2.815 2.815 0 0 1-2.811-2.812V23.55c1.145-.125 3.167-.527 4.729-1.829.35.6.89 1.246 1.695 1.624v2.523a2.815 2.815 0 0 1-2.811 2.812zM52.839 31.725l-3.523-1.412v-.494a4.602 4.602 0 0 0 2.041-2.532 2.487 2.487 0 1 0 1.375-4.409v-1.56c0-3.268-2.66-5.928-5.928-5.928h-.42a5.935 5.935 0 0 0-5.93 5.929v1.553a2.487 2.487 0 0 0 1.395 4.417 4.602 4.602 0 0 0 2.041 2.53v.488l-3.617 1.417c-.334.12-3.164 1.25-3.164 4.849v3.15c0 .488.396.884.884.884h2.247a.884.884 0 1 0 0-1.768h-1.362v-2.266c0-2.447 1.912-3.156 1.986-3.183a.83.83 0 0 0 .041-.015l3.312-1.297 1.76 1.714c.165.16.386.25.617.25h.014a.884.884 0 0 0 .622-.27l1.661-1.724 3.305 1.325.04.015c.082.029 1.995.738 1.995 3.185v2.266H43.049a.884.884 0 1 0 0 1.768h12.066a.89.89 0 0 0 .884-.89v-3.144c0-3.585-2.809-4.72-3.16-4.848zm-1.255-7.438c.032.01.065.018.098.024a.72.72 0 0 1-.098 1.078v-1.102zm-9.962 1.122a.722.722 0 0 1-.145-1.077.88.88 0 0 0 .145-.035v1.112zm.887-3.572h-.003a.88.88 0 0 0-.09.005c-.008 0-.015.002-.023.003a.945.945 0 0 0-.064.01l-.033.008c-.017.005-.035.008-.052.014l-.021.007v-.565a4.165 4.165 0 0 1 4.16-4.16h.42a4.165 4.165 0 0 1 4.16 4.16v.558l-.045-.012-.022-.006c-1.222-.278-1.622-1.91-1.625-1.923a.884.884 0 0 0-1.579-.323c-1.59 2.2-5.138 2.224-5.183 2.224zm5.038 9.057l-.973 1.01-.916-.89v-.6c.179.022.36.034.544.034h.802c.184 0 .365-.012.543-.033v.479zm-.543-2.214h-.802a2.815 2.815 0 0 1-2.812-2.812V23.55c1.146-.125 3.17-.528 4.73-1.829.35.6.89 1.246 1.695 1.624v2.523a2.815 2.815 0 0 1-2.811 2.812zM34.245 47.118l-3.523-1.413v-.493a4.602 4.602 0 0 0 2.042-2.532 2.487 2.487 0 1 0 1.375-4.409v-1.56c0-3.269-2.66-5.928-5.929-5.928h-.42a5.935 5.935 0 0 0-5.929 5.928v1.553a2.487 2.487 0 0 0 1.394 4.418 4.602 4.602 0 0 0 2.042 2.53v.488l-3.617 1.417c-.334.12-3.164 1.25-3.164 4.848v3.15c0 .489.395.885.884.885h2.246a.884.884 0 1 0 0-1.768h-1.362v-2.267c0-2.446 1.913-3.156 1.987-3.182a.791.791 0 0 0 .04-.015l3.313-1.297 1.76 1.713c.164.161.386.251.616.251h.014a.883.883 0 0 0 .623-.27l1.66-1.725 3.306 1.325c.015.007.024.01.04.015.081.03 1.994.739 1.994 3.185v2.267H24.456a.884.884 0 1 0 0 1.768H36.52a.89.89 0 0 0 .884-.89v-3.145c0-3.584-2.808-4.719-3.16-4.847zM32.99 39.68c.032.01.065.018.099.024a.72.72 0 0 1-.099 1.077V39.68zm-9.961 1.122a.723.723 0 0 1-.146-1.077.878.878 0 0 0 .146-.036v1.113zm.887-3.573h-.003a.88.88 0 0 0-.09.005l-.028.004c-.02.003-.04.005-.06.01-.014.002-.027.006-.041.01l-.044.011-.02.008v-.566a4.165 4.165 0 0 1 4.16-4.16h.42a4.165 4.165 0 0 1 4.16 4.16v.559c-.014-.005-.029-.008-.043-.012l-.025-.007c-1.222-.278-1.622-1.91-1.625-1.922a.884.884 0 0 0-1.579-.323c-1.59 2.199-5.138 2.223-5.182 2.223zm5.038 9.057l-.974 1.012-.915-.892v-.598c.179.02.36.033.544.033h.801c.185 0 .366-.012.544-.033v.478zm-.544-2.214h-.801a2.815 2.815 0 0 1-2.812-2.81v-2.32c1.145-.124 3.168-.527 4.73-1.828.35.599.89 1.245 1.695 1.624v2.523a2.815 2.815 0 0 1-2.812 2.811z"/></g></symbol><symbol viewBox="0 0 18 20" id="icon-icon-65"><title>Group 13</title><path d="M17.645 19.305H.285A.286.286 0 0 1 0 19.02v-3.315c0-1.283.77-2.42 1.96-2.896l4.108-1.643a.286.286 0 0 1 .375.168l1.209 3.343.397-1.144-.351-.86a.286.286 0 0 1 .264-.393h2.006a.286.286 0 0 1 .265.394l-.352.86.398 1.143 1.209-3.343a.286.286 0 0 1 .375-.168l4.107 1.643a3.104 3.104 0 0 1 1.96 2.896v3.316a.286.286 0 0 1-.285.285zM.57 18.734H17.36v-3.03a2.535 2.535 0 0 0-1.601-2.366l-3.833-1.533-1.383 3.822a.286.286 0 0 1-.539-.003l-.697-2.006a.285.285 0 0 1 .006-.202l.231-.566H8.388l.231.566a.286.286 0 0 1 .006.202l-.698 2.006a.286.286 0 0 1-.539.003l-1.382-3.822-3.833 1.533A2.535 2.535 0 0 0 .57 15.704v3.03zm14.88-.679h-3.197a.286.286 0 0 1-.286-.285V15.8c0-.158.128-.286.286-.286h3.198c.157 0 .285.128.285.286v1.969a.286.286 0 0 1-.285.285zm-2.911-.571h2.626v-1.397H12.54v1.397zm-3.575-6.386a3.46 3.46 0 0 1-1.282-.244 2.453 2.453 0 0 1-.774-.468c-.549-.512-1.12-1.608-1.33-2.034-.356-.018-1.088-.208-1.405-1.42-.158-.601-.122-1.085.106-1.437.125-.192.282-.305.411-.371a5.99 5.99 0 0 1 .025-.631c-.2-.307-.64-1.221.114-2.56v-.001l.002-.002.004-.007.002-.004.002-.003v-.001C5.335 1.05 5.974.87 6.424.869h.001c.11 0 .21.011.294.027C6.923.536 7.498 0 9.102 0h.08c1.06.012 1.903.4 2.43.728.998.488 1.609 1.51 1.759 2.04.065.231.098.501.097.801v.007a6.05 6.05 0 0 1-.228 1.517v.03c.129.066.286.18.41.372.228.352.264.835.107 1.437-.317 1.212-1.05 1.402-1.406 1.42-.21.426-.78 1.521-1.33 2.033-.198.186-.459.343-.774.468-.408.163-.84.245-1.282.245zM5.751 7.773a.29.29 0 0 1 .264.165c.006.014.69 1.476 1.283 2.03.147.136.347.256.596.355.341.135.701.203 1.071.203s.73-.068 1.071-.203c.249-.1.45-.219.596-.355.593-.554 1.277-2.015 1.284-2.03a.286.286 0 0 1 .316-.16s.024.004.06.004c.244 0 .686-.13.912-.994.111-.427.102-.764-.028-.973a.475.475 0 0 0-.283-.215.28.28 0 0 1-.233-.305s.008-.088.008-.235c-.005-.08-.045-.32-.166-.436-.146-.116-1.036-.288-1.897-.454-.362-.07-.772-.15-1.204-.238h-.002a3.375 3.375 0 0 1-.724-.206 4.378 4.378 0 0 1-1.53-.946c-.109.303-.284.679-.548.963a3.653 3.653 0 0 1-1.319.884 4.69 4.69 0 0 0-.008.669.286.286 0 0 1-.238.305c-.002.001-.169.037-.278.214-.13.21-.14.546-.028.973.227.865.669.994.912.994.04 0 .064-.004.064-.004a.263.263 0 0 1 .05-.005zm1.265-5.86c.095 0 .185.048.239.13.004.006.506.738 1.625 1.149l.015.006a2.806 2.806 0 0 0 .623.175c.427.087.835.166 1.195.235 1.3.251 1.881.37 2.137.563.027-.187.046-.393.047-.598v-.001-.005a2.444 2.444 0 0 0-.076-.644 1.33 1.33 0 0 0-.025-.077c-.164-.467-.7-1.245-1.44-1.607a.292.292 0 0 1-.034-.018A4.152 4.152 0 0 0 9.176.572H8.967c-1.605.035-1.786.676-1.795.711a.286.286 0 0 1-.399.218 1.009 1.009 0 0 0-.35-.06c-.435 0-.802.257-1.09.764l-.002.003-.002.003v.001c-.526.933-.34 1.575-.198 1.858a3.08 3.08 0 0 0 1.047-.715c.334-.36.516-.996.558-1.21a.286.286 0 0 1 .28-.231z"/></symbol><symbol viewBox="0 0 20 19" id="icon-icon-66"><title>Group 13 Copy 2</title><path d="M18.714 10.57a.715.715 0 0 0-.843.55c-.797 3.871-3.89 6.473-7.693 6.473-3.592 0-6.747-2.323-7.82-5.63h3.356v-1.407H0v5.63h1.429v-2.709C2.978 16.771 6.368 19 10.178 19c4.503 0 8.157-3.055 9.093-7.6a.704.704 0 0 0-.557-.83zM18.571 2.111v3.032C16.964 2.009 13.783 0 10.178 0 5.814 0 1.934 2.813.743 6.84a.702.702 0 0 0 .486.873.716.716 0 0 0 .885-.48c.999-3.375 4.39-5.826 8.064-5.826 3.26 0 6.116 1.947 7.378 4.926h-3.27v1.408H20V2.11h-1.429z"/></symbol><symbol viewBox="0 0 13 17" id="icon-icon-67"><title>Group 13 Copy</title><path d="M12.35 15.692h-.65V14.15c0-2.31-1.2-4.412-3.138-5.649C10.501 7.263 11.7 5.162 11.7 2.85V1.309h.65c.36 0 .65-.293.65-.654A.651.651 0 0 0 12.35 0H.65C.29 0 0 .292 0 .654c0 .361.29.654.65.654h.65V2.85c0 2.31 1.2 4.412 3.138 5.649C2.499 9.737 1.3 11.838 1.3 14.15v1.542H.65c-.36 0-.65.293-.65.654 0 .362.29.654.65.654H12.35c.36 0 .65-.292.65-.654a.651.651 0 0 0-.65-.654zM2.6 2.851V1.308h7.8V2.85c0 2.17-1.321 4.118-3.378 4.995H5.979C3.92 6.97 2.6 5.022 2.6 2.851zm0 11.298c0-2.17 1.321-4.118 3.378-4.995h1.043c2.058.877 3.379 2.824 3.379 4.995v1.543H2.6V14.15z"/></symbol><symbol viewBox="0 0 15 21" id="icon-icon-68"><title>placeholder (2) copy 2</title><path d="M7.522 4.582c-1.484 0-2.692 1.2-2.692 2.673s1.208 2.672 2.692 2.672c1.484 0 2.692-1.199 2.692-2.672 0-1.474-1.208-2.673-2.692-2.673zm0 4.582a1.918 1.918 0 0 1-1.923-1.91c0-1.052.863-1.909 1.923-1.909s1.923.857 1.923 1.91c0 1.052-.863 1.909-1.923 1.909z"/><path d="M12.67 2.145A7.355 7.355 0 0 0 7.453 0c-1.97 0-3.822.762-5.216 2.145C-.34 4.704-.66 9.518 1.545 12.435l5.909 8.472 5.9-8.46c2.214-2.929 1.893-7.743-.685-10.302zM12.73 12l-5.276 7.565-5.285-7.577c-2-2.647-1.713-6.995.614-9.304A6.587 6.587 0 0 1 7.453.764c1.765 0 3.424.682 4.672 1.92 2.327 2.31 2.614 6.658.605 9.317z"/></symbol><symbol viewBox="0 0 83.24 76.14" id="icon-icon-69"><title>notificação_dialog</title><g data-name="Layer 1"><path d="M32.82 66.07a32.34 32.34 0 0 1-15.36-3.84c-1-.42-6.37.46-11.6 1.94L3 65l.73-2.93c1.26-5 1.91-10.35 1.4-11.38A33.11 33.11 0 0 1 28.87.25 32.84 32.84 0 0 1 65.52 29 33 33 0 0 1 36.9 65.83a34 34 0 0 1-4.08.24zm-16.37-7.39a6 6 0 0 1 2.65.46 29.1 29.1 0 0 0 17.38 3.21A29.61 29.61 0 0 0 51 9.73a29.16 29.16 0 0 0-21.68-6A29.61 29.61 0 0 0 8.06 48.85c1.26 2.06.48 7.36-.33 11.2a41 41 0 0 1 8.72-1.37z"/><path d="M54.26 76.14a30 30 0 0 1-3.58-.22 28.7 28.7 0 0 1-19.06-10.64l-2.26-2.84h3.93a29.08 29.08 0 0 0 29-29.05 28.59 28.59 0 0 0-2.59-12.07l-1.57-3.4 3.61 1A29.23 29.23 0 0 1 83 50.6a29.91 29.91 0 0 1-4.24 12c-.44.94.13 5.5 1.2 9.76l.75 3-2.94-.86c-4.37-1.28-9.05-2.08-10-1.72a28.27 28.27 0 0 1-13.51 3.36zM36.79 65.75a25.42 25.42 0 0 0 29.36 3.9c1.85-1 6.19-.21 9.77.68-.73-3.55-1.26-7.83-.11-9.6a26.37 26.37 0 0 0 3.73-10.55 25.75 25.75 0 0 0-15.25-26.69 32.16 32.16 0 0 1 1.54 9.9 32.6 32.6 0 0 1-29.04 32.36z"/></g></symbol><symbol viewBox="0 0 26 26" id="icon-icon-7"><title>Group</title><g transform="translate(1.313 1.313)"><path d="M9.9-1.3h3v25.5h-3z"/><path d="M-1.3 9.9h25.5v3H-1.3z"/></g></symbol><symbol viewBox="0 0 37 37" id="icon-icon-70"><title>Group 2</title><g transform="rotate(-38 18.52 17.747)" fill="none" fill-rule="evenodd"><circle fill="#00BEE7" cx="18" cy="18" r="18"/><g transform="translate(6.839 5.26)"><path fill="#FFF" d="M2.059 21.512l21.502-9.22L2.059 3.074l-.01 7.17 15.366 2.05L2.049 14.34z"/><path d="M0 0h24.585v24.585H0z"/></g></g></symbol><symbol viewBox="0 0 24 24" id="icon-icon-71"><defs><path d="M24 24H0V0h24v24z" id="cja"/></defs><clipPath id="cjb"><use overflow="visible" xlink:href="#cja"/></clipPath><path clip-path="url(#cjb)" d="M3 4V1h2v3h3v2H5v3H3V6H0V4h3zm3 6V7h3V4h7l1.83 2H21c1.1 0 2 .9 2 2v12c0 1.1-.9 2-2 2H5c-1.1 0-2-.9-2-2V10h3zm7 9c2.76 0 5-2.24 5-5s-2.24-5-5-5-5 2.24-5 5 2.24 5 5 5zm-3.2-5c0 1.77 1.43 3.2 3.2 3.2s3.2-1.43 3.2-3.2-1.43-3.2-3.2-3.2-3.2 1.43-3.2 3.2z"/></symbol><symbol viewBox="0 0 23 21" id="icon-icon-72"><title>Asset 1</title><path d="M3 3V0h2v3h3v2H5v3H3V5H0V3zm3 6V6h3V3h7l1.83 2H21a2 2 0 0 1 2 2v12a2 2 0 0 1-2 2H5a2 2 0 0 1-2-2V9zm7.71 10a5 5 0 1 0-5-5 5 5 0 0 0 5 5zm-3.2-5a3.2 3.2 0 1 0 3.2-3.2 3.2 3.2 0 0 0-3.2 3.2z" data-name="Layer 1"/></symbol><symbol viewBox="0 0 227 82" id="icon-icon-8"><title>Logo_Algar-Telecom</title><g fill="none" fill-rule="evenodd"><path d="M30.43 43.56H17.133l5.285-18.494c1.157-4.047 1.485-6.852 1.485-6.852h.167s.249 2.89 1.321 6.852L30.43 43.56zm6.999 19.815h-.017a2.273 2.273 0 0 1-2.159-1.618l-.017-.06-2.99-10.458H15.15l-3.14 10.49a2.27 2.27 0 0 1-2.185 1.646c-.02 0-.036.002-.053 0H2.67A2.274 2.274 0 0 1 .5 60.43c.005-.02.014-.042.02-.065l16.983-52.14a2.274 2.274 0 0 1 2.19-1.65h9.743c1.01 0 1.87.657 2.164 1.57L48.527 60.36a2.273 2.273 0 0 1-2.119 3.015h-8.98zM50.047 6.519c0-.908.531-1.694 1.3-2.056l7.22-3.767c.402-.247.99-.433 1.486-.433a2.271 2.271 0 0 1 2.272 2.27l-.006 47.478c.031 2.828 2.53 5.08 5.364 5.08a2.264 2.264 0 0 1 2.263 2.27v3.689a2.267 2.267 0 0 1-2.263 2.274h-2.492c-8.366 0-15.144-6.78-15.144-15.143V6.52zm56.216 15.221a2.305 2.305 0 0 1 1.33 2.085v39.103c0 12.359-7.706 18.346-19.048 18.788-5.506.217-10.12-1.047-13.9-2.733-.008-.005-.017-.008-.025-.014a2.293 2.293 0 0 1-1.287-2.93l1.222-3.13a2.303 2.303 0 0 1 3.075-1.429c.009.006.014.006.023.011a24.337 24.337 0 0 0 8.603 1.596c6.629 0 9.05-3.148 9.05-8.157v-2.424c-1.454.806-3.958 1.37-7.596 1.37-10.425 0-17.942-7.996-17.942-21.003 0-14.546 7.438-23.672 22.39-23.672 5.793 0 10.807 1.026 14.046 2.503a.21.21 0 0 1 .06.036zM95.306 55.637c-1.05.647-2.685 1.049-4.382 1.049-6.303 0-8.889-4.687-8.889-14.543 0-10.422 2.665-15.671 9.132-15.671 1.698 0 3.172.243 4.14.727v28.438zm42.154 1.521l.005-16.585c-7.163-.56-13.073 2.073-13.073 8.96 0 5.049 3.039 8.044 8.264 8.044 3.395 0 4.804-.419 4.804-.419zm12.318-14.698v16.873c-.009.908-.575 1.7-1.398 2.07l-.06.031c-3.822 1.5-9.553 2.546-16.34 2.546-13.153 0-20.084-4.754-20.084-13.723 0-11.126 9.18-16.276 25.541-15.45-.38-4.305-2.922-6.955-9-6.955-3.125 0-6.158.648-8.603 1.6-.008 0-.017 0-.022.007a2.296 2.296 0 0 1-3.075-1.431l-1.223-3.126a2.248 2.248 0 0 1-.147-.803 2.308 2.308 0 0 1 1.46-2.144c3.78-1.685 8.391-2.95 13.9-2.732 11.338.444 19.05 6.432 19.05 18.788v4.449zm6.141-17.688c0-1.765 1.257-3.193 2.866-3.736 4.202-1.442 9.701-2.16 17.923-1.929h.07a2.274 2.274 0 0 1 2.272 2.257v3.072a2.277 2.277 0 0 1-2.538 2.265c-3.04-.263-6.724.37-8.328 1.111v33.35a2.272 2.272 0 0 1-2.272 2.21h-7.718a2.272 2.272 0 0 1-2.275-2.271c0-.046 0-.094.003-.139l-.003-36.156v-.034z" fill="#005F91"/><path d="M188.14 21.41a2.275 2.275 0 0 1 3.491-1.861l13.186 7.607.017.009a2.28 2.28 0 0 1-.135 3.954s-13.159 7.596-13.181 7.61l-.017.006a2.266 2.266 0 0 1-2.224-.025 2.283 2.283 0 0 1-1.137-2.062V21.409" fill="#00A3DB"/><path d="M209.25 33.585a2.276 2.276 0 0 1 3.488-1.864l13.187 7.608.017.011a2.276 2.276 0 0 1-.133 3.954s-13.16 7.594-13.183 7.61l-.017.01a2.268 2.268 0 0 1-2.221-.032 2.272 2.272 0 0 1-1.137-2.062V33.585" fill="#F9C623"/><path d="M188.14 45.769a2.288 2.288 0 0 1 1.137-1.91 2.269 2.269 0 0 1 2.354.052s13.158 7.59 13.186 7.608l.017.008a2.278 2.278 0 0 1-.136 3.954s-13.158 7.594-13.18 7.608l-.017.008a2.274 2.274 0 0 1-2.224-.03 2.276 2.276 0 0 1-1.137-2.06V45.77" fill="#009949"/></g></symbol><symbol viewBox="0 0 1280 166" id="icon-icon-9"><title>Path 2</title><defs><linearGradient x1="71.875%" y1="15.254%" x2="-7.344%" y2="151.973%" id="cma"><stop stop-color="#00A3DA" offset="0%"/><stop stop-color="#00A3DA" stop-opacity=".551" offset="100%"/></linearGradient></defs><path d="M0 664.465s197.006-62.758 516.996-34.524C836.986 658.176 1279.99 554 1279.99 554s.022 166 0 166H0v-55.535z" transform="translate(0 -554)" fill="url(#cma)" fill-rule="evenodd"/></symbol></svg>